<?xml version='1.0' encoding='utf-8'?>
<COLLADA xmlns="http://www.collada.org/2005/11/COLLADASchema" version="1.4.1">
  <asset>
    <created>2026-07-27T16:58:15Z</created>
    <modified>2026-07-27T16:58:15Z</modified>
  </asset>
  <library_images>
    <image id="image-h_kage">
      <init_from>h_kage.png</init_from>
    </image>
    <image id="image-c8g_b_kubi">
      <init_from>c8g_b_kubi.png</init_from>
    </image>
    <image id="image-c8g_b_kao">
      <init_from>c8g_b_kao.png</init_from>
    </image>
    <image id="image-c8g_b_tou">
      <init_from>c8g_b_tou.png</init_from>
    </image>
  </library_images>
  <library_materials>
    <material id="material0" name="c8g_b_kao">
      <instance_effect url="#effect0" />
    </material>
    <material id="material1" name="c8g_b_kubi">
      <instance_effect url="#effect1" />
    </material>
    <material id="material2" name="c8g_b_tou">
      <instance_effect url="#effect2" />
    </material>
    <material id="material3" name="d_me01">
      <instance_effect url="#effect3" />
    </material>
    <material id="material4" name="h_kage">
      <instance_effect url="#effect4" />
    </material>
  </library_materials>
  <library_effects>
    <effect id="effect0" name="c8g_b_kao">
      <profile_COMMON>
        <newparam sid="Image-surface">
          <surface type="2D">
            <init_from>image-c8g_b_kao</init_from>
            <format>A8R8G8B8</format>
          </surface>
        </newparam>
        <newparam sid="Image-sampler">
          <sampler2D>
            <source>Image-surface</source>
            <wrap_s>CLAMP</wrap_s>
            <wrap_t>CLAMP</wrap_t>
            <minfilter>NEAREST</minfilter>
            <magfilter>NEAREST</magfilter>
            <mipfilter>NEAREST</mipfilter>
          </sampler2D>
        </newparam>
        <technique sid="common">
          <phong>
            <emission>
              <color>0 0 0 1</color>
            </emission>
            <ambient>
              <color>0.8064516 0.8064516 0.8064516 1</color>
            </ambient>
            <diffuse>
              <texture texture="Image-sampler" texcoord="tc" />
            </diffuse>
            <specular>
              <color>0 0 0 1</color>
            </specular>
            <transparent>
              <texture texture="Image-sampler" texcoord="tc" />
            </transparent>
          </phong>
        </technique>
      </profile_COMMON>
    </effect>
    <effect id="effect1" name="c8g_b_kubi">
      <profile_COMMON>
        <newparam sid="Image-surface">
          <surface type="2D">
            <init_from>image-c8g_b_kubi</init_from>
            <format>A8R8G8B8</format>
          </surface>
        </newparam>
        <newparam sid="Image-sampler">
          <sampler2D>
            <source>Image-surface</source>
            <wrap_s>CLAMP</wrap_s>
            <wrap_t>WRAP</wrap_t>
            <minfilter>NEAREST</minfilter>
            <magfilter>NEAREST</magfilter>
            <mipfilter>NEAREST</mipfilter>
          </sampler2D>
        </newparam>
        <technique sid="common">
          <phong>
            <emission>
              <color>0 0 0 1</color>
            </emission>
            <ambient>
              <color>0.8064516 0.8064516 0.8064516 1</color>
            </ambient>
            <diffuse>
              <texture texture="Image-sampler" texcoord="tc" />
            </diffuse>
            <specular>
              <color>0 0 0 1</color>
            </specular>
          </phong>
        </technique>
      </profile_COMMON>
    </effect>
    <effect id="effect2" name="c8g_b_tou">
      <profile_COMMON>
        <newparam sid="Image-surface">
          <surface type="2D">
            <init_from>image-c8g_b_tou</init_from>
            <format>A8R8G8B8</format>
          </surface>
        </newparam>
        <newparam sid="Image-sampler">
          <sampler2D>
            <source>Image-surface</source>
            <wrap_s>WRAP</wrap_s>
            <wrap_t>CLAMP</wrap_t>
            <minfilter>NEAREST</minfilter>
            <magfilter>NEAREST</magfilter>
            <mipfilter>NEAREST</mipfilter>
          </sampler2D>
        </newparam>
        <technique sid="common">
          <phong>
            <emission>
              <color>0 0 0 1</color>
            </emission>
            <ambient>
              <color>0.8064516 0.8064516 0.8064516 1</color>
            </ambient>
            <diffuse>
              <texture texture="Image-sampler" texcoord="tc" />
            </diffuse>
            <specular>
              <color>0 0 0 1</color>
            </specular>
          </phong>
        </technique>
      </profile_COMMON>
    </effect>
    <effect id="effect3" name="d_me01">
      <profile_COMMON>
        <technique sid="common">
          <phong>
            <emission>
              <color>1 1 1 1</color>
            </emission>
            <ambient>
              <color>1 1 1 1</color>
            </ambient>
            <diffuse>
              <color>0.8064516 0.8064516 0.8064516 1</color>
            </diffuse>
            <specular>
              <color>0 0 0 1</color>
            </specular>
          </phong>
        </technique>
      </profile_COMMON>
    </effect>
    <effect id="effect4" name="h_kage">
      <profile_COMMON>
        <newparam sid="Image-surface">
          <surface type="2D">
            <init_from>image-h_kage</init_from>
            <format>A8R8G8B8</format>
          </surface>
        </newparam>
        <newparam sid="Image-sampler">
          <sampler2D>
            <source>Image-surface</source>
            <wrap_s>WRAP</wrap_s>
            <wrap_t>WRAP</wrap_t>
            <minfilter>NEAREST</minfilter>
            <magfilter>NEAREST</magfilter>
            <mipfilter>NEAREST</mipfilter>
          </sampler2D>
        </newparam>
        <technique sid="common">
          <phong>
            <emission>
              <color>0 0 0 1</color>
            </emission>
            <ambient>
              <color>0 0 0 1</color>
            </ambient>
            <diffuse>
              <texture texture="Image-sampler" texcoord="tc" />
            </diffuse>
            <specular>
              <color>0 0 0 1</color>
            </specular>
            <transparent>
              <texture texture="Image-sampler" texcoord="tc" />
            </transparent>
          </phong>
        </technique>
      </profile_COMMON>
    </effect>
  </library_effects>
  <library_geometries>
    <geometry id="geometry" name="c8_gym_01">
      <mesh>
        <source id="positions">
          <float_array id="positions-array" count="1314">62.039063 99.30469 33.671875 64.66406 103.92969 38.84375 67.25 96.59375 51.617188 64.984375 89.203125 49.351563 41.671875 99.30469 54.039063 57.351563 89.203125 56.984375 59.617188 96.59375 59.25 46.84375 103.92969 56.664063 -25.671875 99.30469 54.039063 -30.84375 103.92969 56.664063 -43.617188 96.59375 59.25 -41.351563 89.203125 56.984375 -46.039063 99.30469 33.671875 -48.984375 89.203125 49.351563 -51.25 96.59375 51.617188 -48.664063 103.92969 38.84375 62.039063 99.30469 33.671875 64.984375 89.203125 49.351563 66.234375 89.515625 32.78125 57.351563 89.203125 56.984375 41.671875 99.30469 54.039063 40.78125 89.515625 58.234375 -25.671875 99.30469 54.039063 -41.351563 89.203125 56.984375 -24.78125 89.515625 58.234375 -48.984375 89.203125 49.351563 -46.039063 99.30469 33.671875 -50.234375 89.515625 32.78125 64 2 8 52 2 -32 8 2 0 8 2 -52 -36 2 -32 -36 2 -32 -48 2 8 8 2 0 -46 2 28 -18 2 52 -18 2 52 -8 2 68 8 2 0 24 2 68 34 2 52 34 2 52 62 2 28 8 2 0 64 2 8 50 2 68 50 2 50 30 2 50 30 2 68 -20 112.02344 12 -20 112.02344 -12 -24 104 14 -24 104 -14 -34 40 18 -34 40 -18 -34 4 18 -34 4 -18 36 112.02344 -12 36 112.02344 12 40 104 -14 40 104 14 50 40 -18 50 40 18 50 4 -18 50 4 18 17 36 64 21 40 64 8 40 64 8 46 64 -1 36 64 -5 40 64 20 112.02344 28 -4 112.02344 28 22 104 32 -6 104 32 26 40 42 -10 40 42 36 112.02344 12 8 176 0 20 112.02344 28 -4 112.02344 28 -5 40 64 -5 4 64 -1 4 64 -1 36 64 26 4 42 26 40 42 21 40 58 21 4 58 -10 40 42 -10 4 42 -5 4 58 -5 40 58 -4 112 -28 20 112 -28 22 104 -32 -6 104 -32 -20 112.02344 -12 -4 112 -28 -6 104 -32 -24 104 -14 21 40 58 8 46 58 8 46 64 21 40 64 -4 112.02344 28 -20 112.02344 12 -24 104 14 -6 104 32 36 112.02344 12 20 112.02344 28 22 104 32 40 104 14 21 4 58 21 40 58 21 40 64 21 4 64 -5 40 58 -5 4 58 -5 4 64 -5 40 64 8 46 64 8 46 58 -5 40 58 -5 40 64 17 4 64 17 36 64 17 36 58 17 4 58 -1 36 64 -1 4 64 -1 4 58 -1 36 58 21 4 64 21 40 64 17 36 64 17 4 64 20 112 -28 36 112.02344 -12 40 104 -14 22 104 -32 20 112 -28 -4 112 -28 8 176 0 -5 40 58 8 46 58 -10 40 42 8 46 58 26 40 42 -10 40 42 26 40 42 8 46 58 21 40 58 36 112.02344 -12 20 112 -28 8 176 0 36 112.02344 12 36 112.02344 -12 8 176 0 -20 112.02344 12 -4 112.02344 28 8 176 0 -20 112.02344 -12 -20 112.02344 12 8 176 0 -4 112 -28 -20 112.02344 -12 8 176 0 34 4 46 54 4 26 46 40 52 60 40 38 40 85.21094 40 50 85.21094 30 46 98.859375 52 62 98.859375 36 17 4 58 17 36 58 17 4 48 17 36 48 -1 4 48 -1 36 48 -1 4 58 -1 36 58 -6 104 32 -24 104 14 -18 112 34 -28 112 24 -28 108 44 -38 108 34 -10 4 42 -10 40 42 -18 4 46 -30 40 52 -38 4 26 -44 40 38 -44 40 38 -30 40 52 -34 85.21094 30 -24 85.21094 40 -46 98.859375 36 -30 98.859375 52 44 112 24 62 98.859375 36 40 104 14 50 85.21094 30 60 40 38 46 40 52 40 85.21094 40 22 104 32 46 98.859375 52 34 112 34 -34 40 18 -44 40 38 -24 104 14 -34 85.21094 30 -46 98.859375 36 -30 98.859375 52 -24 85.21094 40 -6 104 32 -30 40 52 -10 40 42 -24 104 14 -46 98.859375 36 -28 112 24 -38 108 34 -28 108 44 -30 98.859375 52 -18 112 34 -6 104 32 50 40 18 60 40 38 54 4 26 50 4 18 34 112 34 44 112 24 40 104 14 22 104 32 34 112 34 44 108 44 54 108 34 44 112 24 26 4 42 34 4 46 46 40 52 26 40 42 -34 40 18 -34 4 18 -38 4 26 -44 40 38 17 4 48 -1 4 48 -1 4 58 17 4 58 32 26 52 32 4 52 32 4 66 32 18 66 32 4 66 48 4 66 48 18 66 32 18 66 48 18 66 48 4 66 48 4 52 48 26 52 32 18 66 48 18 66 48 26 52 32 26 52 46 98.859375 52 44 108 44 34 112 34 44 112 24 54 108 34 62 98.859375 36 60 40 38 50 40 18 40 104 14 46 40 52 22 104 32 26 40 42 68.49219 68.1875 75.765625 83.765625 68.1875 60.492188 57.945313 90.25 60.132813 68.13281 90.25 49.945313 60.210938 97.640625 62.398438 70.39844 97.640625 52.210938 46.625 106.35156 58.992188 66.99219 106.35156 38.625 45.453125 110 42.546875 50.546875 110 37.453125 -67.765625 68.1875 60.492188 -52.492188 68.1875 75.765625 -52.132813 90.25 49.945313 -41.945313 90.25 60.132813 -54.398438 97.640625 52.210938 -44.210938 97.640625 62.398438 -50.992188 106.35156 38.625 -30.625 106.35156 58.992188 -34.546875 110 37.453125 -29.453125 110 42.546875 83.765625 68.1875 60.492188 77.1875 66.765625 48.828125 68.13281 90.25 49.945313 64.515625 78.234375 41.242188 69.1875 88.828125 30.640625 -41.554688 99.859375 29.1875 -49.640625 101.72656 32.179688 -59.9375 138.11719 11.9296875 -50.992188 106.35156 38.625 -34.546875 110 37.453125 83.765625 68.1875 60.492188 68.49219 68.1875 75.765625 73.55469 55.734375 65.55469 56.828125 66.765625 69.1875 68.015625 53.859375 60.015625 40.179688 101.72656 57.640625 46.625 106.35156 58.992188 19.929688 138.11719 67.9375 45.453125 110 42.546875 37.1875 99.859375 49.554688 -52.492188 68.1875 75.765625 -40.828125 66.765625 69.1875 -41.945313 90.25 60.132813 -33.242188 78.234375 56.515625 -22.640625 88.828125 61.1875 64.515625 78.234375 41.242188 53.46875 86.953125 35.289063 69.1875 88.828125 30.640625 57.554688 99.859375 29.1875 65.640625 101.72656 32.179688 -33.242188 78.234375 56.515625 -27.289063 86.953125 45.46875 -22.640625 88.828125 61.1875 -21.1875 99.859375 49.554688 -24.179688 101.72656 57.640625 -52.492188 68.1875 75.765625 -67.765625 68.1875 60.492188 -57.554688 55.734375 65.55469 -61.1875 66.765625 48.828125 -52.015625 53.859375 60.015625 46.625 106.35156 58.992188 40.179688 101.72656 57.640625 60.210938 97.640625 62.398438 57.945313 90.25 60.132813 49.242188 78.234375 56.515625 38.640625 88.828125 61.1875 43.289063 86.953125 45.46875 37.1875 99.859375 49.554688 -52.492188 68.1875 75.765625 -57.554688 55.734375 65.55469 -40.828125 66.765625 69.1875 -52.015625 53.859375 60.015625 68.49219 68.1875 75.765625 57.945313 90.25 60.132813 56.828125 66.765625 69.1875 49.242188 78.234375 56.515625 49.242188 78.234375 56.515625 57.945313 90.25 60.132813 38.640625 88.828125 61.1875 40.179688 101.72656 57.640625 50.546875 110 37.453125 66.99219 106.35156 38.625 75.9375 138.11719 11.9296875 65.640625 101.72656 32.179688 69.1875 88.828125 30.640625 65.640625 101.72656 32.179688 68.13281 90.25 49.945313 70.39844 97.640625 52.210938 68.015625 53.859375 60.015625 77.1875 66.765625 48.828125 73.55469 55.734375 65.55469 83.765625 68.1875 60.492188 65.640625 101.72656 32.179688 57.554688 99.859375 29.1875 75.9375 138.11719 11.9296875 50.546875 110 37.453125 -67.765625 68.1875 60.492188 -52.132813 90.25 49.945313 -61.1875 66.765625 48.828125 -48.515625 78.234375 41.242188 -48.515625 78.234375 41.242188 -52.132813 90.25 49.945313 -53.1875 88.828125 30.640625 -49.640625 101.72656 32.179688 -29.453125 110 42.546875 -30.625 106.35156 58.992188 -3.9296875 138.11719 67.9375 -24.179688 101.72656 57.640625 -22.640625 88.828125 61.1875 -24.179688 101.72656 57.640625 -41.945313 90.25 60.132813 -44.210938 97.640625 62.398438 -24.179688 101.72656 57.640625 -21.1875 99.859375 49.554688 -3.9296875 138.11719 67.9375 -29.453125 110 42.546875 -50.992188 106.35156 38.625 -49.640625 101.72656 32.179688 -54.398438 97.640625 52.210938 -52.132813 90.25 49.945313 -48.515625 78.234375 41.242188 -53.1875 88.828125 30.640625 -37.46875 86.953125 35.289063 -41.554688 99.859375 29.1875 77.1875 66.765625 48.828125 68.015625 53.859375 60.015625 64.515625 78.234375 41.242188 49.242188 78.234375 56.515625 68.015625 53.859375 60.015625 56.828125 66.765625 69.1875 38.640625 88.828125 61.1875 40.179688 101.72656 57.640625 37.1875 99.859375 49.554688 70.39844 97.640625 52.210938 65.640625 101.72656 32.179688 66.99219 106.35156 38.625 -40.828125 66.765625 69.1875 -52.015625 53.859375 60.015625 -33.242188 78.234375 56.515625 -48.515625 78.234375 41.242188 -52.015625 53.859375 60.015625 -61.1875 66.765625 48.828125 -53.1875 88.828125 30.640625 -49.640625 101.72656 32.179688 -41.554688 99.859375 29.1875 -44.210938 97.640625 62.398438 -24.179688 101.72656 57.640625 -30.625 106.35156 58.992188 -59.9375 138.11719 11.9296875 -34.546875 110 37.453125 -41.554688 99.859375 29.1875 19.929688 138.11719 67.9375 37.1875 99.859375 49.554688 40.179688 101.72656 57.640625 </float_array>
          <technique_common>
            <accessor source="#positions-array" count="438" stride="3">
              <param name="X" type="float" />
              <param name="Y" type="float" />
              <param name="Z" type="float" />
            </accessor>
          </technique_common>
        </source>
        <source id="texcoords">
          <float_array id="texcoords-array" count="876">0 0 0 0 0 0 0 0 0 0 0 0 0 0 0 0 0 0 0 0 0 0 0 0 0 0 0 0 0 0 0 0 0 0 0 0 0 0 0 0 0 0 0 0 0 0 0 0 0 0 0 0 0 0 0 0 0.125 0.78125 0.125 0.78125 0.125 0.125 0.125 0.78125 0.125 0.78125 0.125 0.78125 0.125 0.78125 0.125 0.125 0.125 0.78125 0.125 0.78125 0.125 0.78125 0.125 0.78125 0.125 0.125 0.125 0.78125 0.125 0.78125 0.125 0.78125 0.125 0.78125 0.125 0.125 0.125 0.78125 0.5 0.875 0.5 0.875 0.5 0.875 0.5 0.875 1 0.7392578 0 0.7392578 1 0.6875 0 0.6875 1 0.1328125 0 0.1328125 1 0.3359375 0 0.3359375 1 0.7392578 0 0.7392578 1 0.6875 0 0.6875 1 0.1328125 0 0.1328125 1 0.3359375 0 0.3359375 0.96875 0.087890625 0.96875 0.1171875 0.625 0.087890625 0.625 0.1171875 0.96875 0.087890625 0.96875 0.1171875 1 0.7392578 0 0.7392578 1 0.6875 0 0.6875 1 0.1328125 0 0.1328125 1 0.7421875 0.5 1 0 0.7421875 1 0.7421875 0.96875 0.1171875 0.03125 0.1171875 0.03125 0.087890625 0.875 0.087890625 0.03125 0.056640625 0.96875 0.056640625 0.96875 0.078125 0.03125 0.078125 0.96875 0.056640625 0.03125 0.056640625 0.03125 0.078125 0.96875 0.078125 1 0.7392578 0 0.7392578 0 0.6875 1 0.6875 1 0.7392578 0 0.7392578 0 0.6875 1 0.6875 0.5 0.046875 -0.5 0.046875 -0.5 0 0.5 0 1 0.7392578 0 0.7392578 0 0.6875 1 0.6875 1 0.7392578 0 0.7392578 0 0.6875 1 0.6875 0.03125 0.056640625 0.96875 0.056640625 0.96875 0.078125 0.03125 0.078125 0.96875 0.056640625 0.03125 0.056640625 0.03125 0.078125 0.96875 0.078125 -0.5 0 -0.5 0.046875 -1.5 0.046875 -1.5 0 0.40625 0.671875 0.40625 0.671875 0.40625 0.671875 0.40625 0.671875 0.40625 0.671875 0.40625 0.671875 0.40625 0.671875 0.40625 0.671875 0.03125 0.1171875 0.96875 0.1171875 0.875 0.087890625 0.03125 0.087890625 1 0.7392578 0 0.7392578 0 0.6875 1 0.6875 0 0.7421875 1 0.7421875 0.5 1 0 0.78125 0 1 -0.4375 1 0.5 0.46875 0.84375 0.296875 0.15625 0.296875 0.4375 1 0 1 0 0.78125 0 0.7421875 1 0.7421875 0.5 1 0 0.7421875 1 0.7421875 0.5 1 0 0.7421875 1 0.7421875 0.5 1 0 0.7421875 1 0.7421875 0.5 1 0 0.7421875 1 0.7421875 0.5 1 0.3515625 -3 0.2578125 -3 0.3515625 -2 0.2578125 -2 0.3671875 -0.625 0.2578125 -0.625 0.3515625 0.1875 0.2578125 0.5 0.87597656 0.18554688 0.87597656 0.18554688 0.87597656 0.18554688 0.87597656 0.18554688 0.87597656 0.18554688 0.87597656 0.18554688 0.87597656 0.18554688 0.87597656 0.18554688 0.5078125 0 0.6171875 0 0.5078125 0.5 0.6171875 0.5 0.5078125 1 0.6171875 1 0.1640625 -3 0.2421875 -2 0.1015625 -3 0.1015625 -2 0.0078125 -3 0.0078125 -2 0.0078125 -2 0.1015625 -2 0.0078125 -0.625 0.1171875 -0.625 0.0078125 0.5 0.1015625 0.1875 0.4921875 0.375 0.3515625 0.1875 0.4921875 0 0.3671875 -0.625 0.3515625 -2 0.3515625 -2 0.3671875 -0.625 0.4921875 0 0.3515625 0.1875 0.4921875 0.375 0.2421875 -2 0.1015625 -2 0.2421875 0 0.1171875 -0.625 0.1015625 0.1875 0.1015625 0.1875 0.1171875 -0.625 0.2421875 0 0.1015625 -2 0.2421875 -2 0.2421875 0 0.1015625 0.1875 0.2421875 0.375 0.2421875 0.5625 0.2421875 0.5625 0.1015625 0.1875 0.2421875 0.375 0.2421875 0 0.4921875 -2 0.3515625 -2 0.3515625 -3 0.4140625 -3 0.6328125 0.5 0.7421875 0.5 0.7421875 0 0.6328125 0 0.6328125 0.5 0.6328125 1 0.7421875 1 0.7421875 0.5 0.4140625 -3 0.3515625 -3 0.3515625 -2 0.4921875 -2 0.2421875 -2 0.1640625 -3 0.1015625 -3 0.1015625 -2 0.99902344 0.18554688 0.87597656 0.18554688 0.87597656 0.001953125 0.99902344 0.001953125 0.7578125 -0.53125 0.7578125 -0.96875 0.796875 -0.96875 0.796875 -0.53125 0.7578125 -0.46875 0.796875 -0.46875 0.796875 -0.03125 0.7578125 -0.03125 0.7578125 -0.53125 0.7578125 -0.96875 0.796875 -0.96875 0.796875 -0.53125 0.8125 0.21875 0.9921875 0.21875 0.9921875 0.96875 0.8125 0.96875 0.3515625 0.1875 0.4921875 0.5625 0.4921875 0.375 0.4921875 0.375 0.4921875 0.5625 0.3515625 0.1875 0.3515625 -2 0.4921875 -2 0.4921875 0 0.3515625 -2 0.4921875 0 0.4921875 -2 0.71875 0.28125 0.9375 0.28125 0.75 0.578125 0.90625 0.578125 0.75 0.6875 0.90625 0.6875 0.671875 0.890625 0.984375 0.890625 0.78125 1 0.875 1 0.21875 0.28125 0.4375 0.28125 0.25 0.578125 0.40625 0.578125 0.25 0.6875 0.40625 0.6875 0.171875 0.890625 0.484375 0.890625 0.28125 1 0.375 1 0.71875 0.28125 0.578125 0.296875 0.75 0.578125 0.578125 0.5 0.515625 0.609375 0.015625 0 0.015625 0.078125 0.5 0.046875 0.015625 0 0.015625 0.078125 0.9375 0.28125 0.71875 0.28125 0.828125 0.140625 0.578125 0.203125 0.828125 0.09375 0.515625 0.078125 0.515625 0 1 0.046875 0.515625 0.078125 0.515625 0 0.21875 0.28125 0.078125 0.296875 0.25 0.578125 0.078125 0.5 0.015625 0.609375 0.546875 0.140625 0.546875 0.140625 0.546875 0.140625 0.546875 0.140625 0.546875 0.140625 0.046875 0.140625 0.046875 0.140625 0.046875 0.140625 0.046875 0.140625 0.046875 0.140625 0.4375 0.28125 0.21875 0.28125 0.328125 0.140625 0.078125 0.203125 0.328125 0.09375 0.671875 0.890625 0.515625 0.765625 0.75 0.6875 0.75 0.578125 0.546875 0.140625 0.546875 0.140625 0.546875 0.140625 0.546875 0.140625 0.21875 0.28125 0.328125 0.140625 0.078125 0.203125 0.328125 0.09375 0.71875 0.28125 0.75 0.578125 0.578125 0.296875 0.578125 0.5 0.578125 0.5 0.75 0.578125 0.515625 0.609375 0.515625 0.765625 0.515625 0.078125 0.515625 0 1 0.046875 0.515625 0.078125 0.515625 0.609375 0.515625 0.765625 0.75 0.578125 0.75 0.6875 0.828125 0.09375 0.578125 0.203125 0.828125 0.140625 0.71875 0.28125 0.515625 0 0.515625 0.078125 1 0.046875 0.515625 0 0.21875 0.28125 0.25 0.578125 0.078125 0.296875 0.078125 0.5 0.078125 0.5 0.25 0.578125 0.015625 0.609375 0.015625 0.765625 0.015625 0.078125 0.015625 0 0.5 0.046875 0.015625 0.078125 0.015625 0.609375 0.015625 0.765625 0.25 0.578125 0.25 0.6875 0.015625 0 0.015625 0.078125 0.5 0.046875 0.015625 0 0.171875 0.890625 0.015625 0.765625 0.25 0.6875 0.25 0.578125 0.046875 0.140625 0.046875 0.140625 0.046875 0.140625 0.046875 0.140625 0.546875 0.140625 0.546875 0.140625 0.546875 0.140625 0.546875 0.140625 0.546875 0.140625 0.546875 0.140625 0.546875 0.140625 0.546875 0.140625 0.546875 0.140625 0.75 0.6875 0.515625 0.765625 0.671875 0.890625 0.046875 0.140625 0.046875 0.140625 0.046875 0.140625 0.046875 0.140625 0.046875 0.140625 0.046875 0.140625 0.046875 0.140625 0.046875 0.140625 0.046875 0.140625 0.25 0.6875 0.015625 0.765625 0.171875 0.890625 0.5 0.046875 0.015625 0.078125 0.015625 0 1 0.046875 0.515625 0 0.515625 0.078125 </float_array>
          <technique_common>
            <accessor source="#texcoords-array" count="438" stride="2">
              <param name="S" type="float" />
              <param name="T" type="float" />
            </accessor>
          </technique_common>
        </source>
        <source id="colors">
          <float_array id="colors-array" count="1314">1 1 1 1 1 1 1 1 1 1 1 1 1 1 1 1 1 1 1 1 1 1 1 1 1 1 1 1 1 1 1 1 1 1 1 1 1 1 1 1 1 1 1 1 1 1 1 1 1 1 1 1 1 1 1 1 1 1 1 1 1 1 1 1 1 1 1 1 1 1 1 1 1 1 1 1 1 1 1 1 1 1 1 1 1 1 1 1 1 1 1 1 1 1 1 1 1 1 1 1 1 1 1 1 1 1 1 1 1 1 1 1 1 1 1 1 1 1 1 1 1 1 1 1 1 1 1 1 1 1 1 1 1 1 1 1 1 1 1 1 1 1 1 1 1 1 1 1 1 1 1 1 1 1 1 1 1 1 1 1 1 1 1 1 1 1 1 1 1 1 1 1 1 1 1 1 1 1 1 1 1 1 1 1 1 1 1 1 1 1 1 1 1 1 1 1 1 1 1 1 1 1 1 1 1 1 1 1 1 1 1 1 1 1 1 1 1 1 1 1 1 1 1 1 1 1 1 1 1 1 1 1 1 1 1 1 1 1 1 1 1 1 1 1 1 1 1 1 1 1 1 1 1 1 1 1 1 1 1 1 1 1 1 1 1 1 1 1 1 1 1 1 1 1 1 1 1 1 1 1 1 1 1 1 1 1 1 1 1 1 1 1 1 1 1 1 1 1 1 1 1 1 1 1 1 1 1 1 1 1 1 1 1 1 1 1 1 1 1 1 1 1 1 1 1 1 1 1 1 1 1 1 1 1 1 1 1 1 1 1 1 1 1 1 1 1 1 1 1 1 1 1 1 1 1 1 1 1 1 1 1 1 1 1 1 1 1 1 1 1 1 1 1 1 1 1 1 1 1 1 1 1 1 1 1 1 1 1 1 1 1 1 1 1 1 1 1 1 1 1 1 1 1 1 1 1 1 1 1 1 1 1 1 1 1 1 1 1 1 1 1 1 1 1 1 1 1 1 1 1 1 1 1 1 1 1 1 1 1 1 1 1 1 1 1 1 1 1 1 1 1 1 1 1 1 1 1 1 1 1 1 1 1 1 1 1 1 1 1 1 1 1 1 1 1 1 1 1 1 1 1 1 1 1 1 1 1 1 1 1 1 1 1 1 1 1 1 1 1 1 1 1 1 1 1 1 1 1 1 1 1 1 1 1 1 1 1 1 1 1 1 1 1 1 1 1 1 1 1 1 1 1 1 1 1 1 1 1 1 1 1 1 1 1 1 1 1 1 1 1 1 1 1 1 1 1 1 1 1 1 1 1 1 1 1 1 1 1 1 1 1 1 1 1 1 1 1 1 1 1 1 1 1 1 1 1 1 1 1 1 1 1 1 1 1 1 1 1 1 1 1 1 1 1 1 1 1 1 1 1 1 1 1 1 1 1 1 1 1 1 1 1 1 1 1 1 1 1 1 1 1 1 1 1 1 1 1 1 1 1 1 1 1 1 1 1 1 1 1 1 1 1 1 1 1 1 1 1 1 1 1 1 1 1 1 1 1 1 1 1 1 1 1 1 1 1 1 1 1 1 1 1 1 1 1 1 1 1 1 1 1 1 1 1 1 1 1 1 1 1 1 1 1 1 1 1 1 1 1 1 1 1 1 1 1 1 1 1 1 1 1 1 1 1 1 1 1 1 1 1 1 1 1 1 1 1 1 1 1 1 1 1 1 1 1 1 1 1 1 1 1 1 1 1 1 1 1 1 1 1 1 1 1 1 1 1 1 1 1 1 1 1 1 1 1 1 1 1 1 1 1 1 1 1 1 1 1 1 1 1 1 1 1 1 1 1 1 1 1 1 1 1 1 1 1 1 1 1 1 1 1 1 1 1 1 1 1 1 1 1 1 1 1 1 1 1 1 1 1 1 1 1 1 1 1 1 1 1 1 1 1 1 1 1 1 1 1 1 1 1 1 1 1 1 1 1 1 1 1 1 1 1 1 1 1 1 1 1 1 1 1 1 1 1 1 1 1 1 1 1 1 1 1 1 1 1 1 1 1 1 1 1 1 1 1 1 1 1 1 1 1 1 1 1 1 1 1 1 1 1 1 1 1 1 1 1 1 1 1 1 1 1 1 1 1 1 1 1 1 1 1 1 1 1 1 1 1 1 1 1 1 1 1 1 1 1 1 1 1 1 1 1 1 1 1 1 1 1 1 1 1 1 1 1 1 1 1 1 1 1 1 1 1 1 1 1 1 1 1 1 1 1 1 1 1 1 1 1 1 1 1 1 1 1 1 1 1 1 1 1 1 1 1 1 1 1 1 1 1 1 1 1 1 1 1 1 1 1 1 1 1 1 1 1 1 1 1 1 1 1 1 1 1 1 1 1 1 1 1 1 1 1 1 1 1 1 1 1 1 1 1 1 1 1 1 1 1 1 1 1 1 1 1 1 1 1 1 1 1 1 1 1 1 1 1 1 1 1 1 1 1 1 1 1 1 1 1 1 1 1 1 1 1 1 1 1 1 1 1 1 1 1 1 1 1 1 1 1 1 1 1 1 1 1 1 1 1 1 1 1 1 1 1 1 1 1 1 1 1 1 1 1 1 1 1 1 1 1 1 1 1 1 1 1 1 1 1 1 1 1 1 1 1 1 1 1 1 1 1 1 1 1 1 1 1 1 1 1 1 1 1 1 1 1 1 1 1 1 1 1 1 1 1 1 1 1 1 1 1 1 1 1 1 1 1 1 1 1 1 1 1 1 1 1 1 1 1 1 1 1 1 1 1 1 1 1 1 1 1 1 1 1 1 1 1 1 1 1 1 1 1 1 1 1 1 1 1 1 1 1 1 1 1 1 1 1 1 1 1 1 1 1 1 1 1 1 1 1 1 1 1 1 1 1 1 1 1 1 1 1 1 1 1 1 1 1 1 1 1 1 1 1 1 1 1 1 1 1 1 1 1 1 1 1 1 1 1 1 1 1 1 1 1 1 1 1 1 1 1 1 1 1 1 1 </float_array>
          <technique_common>
            <accessor source="#colors-array" count="438" stride="3">
              <param name="R" type="float" />
              <param name="G" type="float" />
              <param name="B" type="float" />
            </accessor>
          </technique_common>
        </source>
        <source id="normals">
          <float_array id="normals-array" count="1314">0.9338485 -0.19341214 -0.30086333 0.9338485 -0.19341214 -0.30086333 0.9338485 -0.19341214 -0.30086333 0.9338485 -0.19341214 -0.30086333 -0.30086333 -0.19341214 0.9338485 -0.30086333 -0.19341214 0.9338485 -0.30086333 -0.19341214 0.9338485 -0.30086333 -0.19341214 0.9338485 0.30086333 -0.19341214 0.9338485 0.30086333 -0.19341214 0.9338485 0.30086333 -0.19341214 0.9338485 0.30086333 -0.19341214 0.9338485 -0.9338485 -0.19341214 -0.30086333 -0.9338485 -0.19341214 -0.30086333 -0.9338485 -0.19341214 -0.30086333 -0.9338485 -0.19341214 -0.30086333 0.9188788 0.38710213 0.076247394 0.9188788 0.38710213 0.076247394 0.9188788 0.38710213 0.076247394 0.076247394 0.38710213 0.9188788 0.076247394 0.38710213 0.9188788 0.076247394 0.38710213 0.9188788 -0.076247394 0.38710213 0.9188788 -0.076247394 0.38710213 0.9188788 -0.076247394 0.38710213 0.9188788 -0.9188788 0.38710213 0.076247394 -0.9188788 0.38710213 0.076247394 -0.9188788 0.38710213 0.076247394 0 1 0 0 1 0 0 1 0 0 1 0 0 1 0 0 1 0 0 1 0 0 1 0 0 1 0 0 1 0 0 1 0 0 1 0 0 1 0 0 1 0 0 1 0 0 1 0 0 1 0 0 1 0 0 1 0 0 1 0 0 1 0 0 1 0 0 1 0 -0.82132936 0.45846176 0.3394568 -0.82132936 0.45846176 -0.3394568 -0.8965716 0.38284975 0.22267792 -0.8965716 0.38284975 -0.22267792 -0.9969384 0.07819124 0 -0.9969384 0.07819124 0 -1 0 0 -1 0 0 0.82132936 0.45846176 -0.3394568 0.82132936 0.45846176 0.3394568 0.8965716 0.38284975 -0.22267792 0.8965716 0.38284975 0.22267792 0.9969384 0.07819124 0 0.9969384 0.07819124 0 1 0 0 1 0 0 0 0 1 0 0 1 0 0 1 0 0 1 0 0 1 0 0 1 0.3394568 0.45846176 0.82132936 -0.3394568 0.45846176 0.82132936 0.22267792 0.38284975 0.8965716 -0.22267792 0.38284975 0.8965716 0 0.15425774 0.9880306 0 0.15425774 0.9880306 0.82132936 0.45846176 0.3394568 0 1 0 0.3394568 0.45846176 0.82132936 -0.3394568 0.45846176 0.82132936 0 0 1 0 0 1 0 0 1 0 0 1 0.95437574 0 0.29860836 0.95437574 0 0.29860836 0.95437574 0 0.29860836 0.95437574 0 0.29860836 -0.95437574 0 0.29860836 -0.95437574 0 0.29860836 -0.95437574 0 0.29860836 -0.95437574 0 0.29860836 -0.33772898 0.4587648 -0.82187223 0.33772898 0.4587648 -0.82187223 0.33772898 0.4587648 -0.82187223 -0.33772898 0.4587648 -0.82187223 -0.82132936 0.45846176 -0.3394568 -0.33772898 0.4587648 -0.82187223 -0.33772898 0.4587648 -0.82187223 -0.8965716 0.38284975 -0.22267792 0.419677 0.90767354 0 0.419677 0.90767354 0 0.419677 0.90767354 0 0.419677 0.90767354 0 -0.3394568 0.45846176 0.82132936 -0.82132936 0.45846176 0.3394568 -0.8965716 0.38284975 0.22267792 -0.22267792 0.38284975 0.8965716 0.82132936 0.45846176 0.3394568 0.3394568 0.45846176 0.82132936 0.22267792 0.38284975 0.8965716 0.8965716 0.38284975 0.22267792 1 0 0 1 0 0 1 0 0 1 0 0 -1 0 0 -1 0 0 -1 0 0 -1 0 0 -0.419677 0.90767354 0 -0.419677 0.90767354 0 -0.419677 0.90767354 0 -0.419677 0.90767354 0 -1 0 0 -1 0 0 -1 0 0 -1 0 0 1 0 0 1 0 0 1 0 0 1 0 0 0 0 1 0 0 1 0 0 1 0 0 1 0.33772898 0.4587648 -0.82187223 0.82132936 0.45846176 -0.3394568 0.8965716 0.38284975 -0.22267792 0.33772898 0.4587648 -0.82187223 0.33772898 0.4587648 -0.82187223 -0.33772898 0.4587648 -0.82187223 0 1 0 -0.4159347 0.9002155 0.12888117 -0.4159347 0.9002155 0.12888117 -0.4159347 0.9002155 0.12888117 0 0.936088 -0.35176584 0 0.936088 -0.35176584 0 0.936088 -0.35176584 0.4159347 0.9002155 0.12888117 0.4159347 0.9002155 0.12888117 0.4159347 0.9002155 0.12888117 0.82132936 0.45846176 -0.3394568 0.33772898 0.4587648 -0.82187223 0 1 0 0.82132936 0.45846176 0.3394568 0.82132936 0.45846176 -0.3394568 0 1 0 -0.82132936 0.45846176 0.3394568 -0.3394568 0.45846176 0.82132936 0 1 0 -0.82132936 0.45846176 -0.3394568 -0.82132936 0.45846176 0.3394568 0 1 0 -0.33772898 0.4587648 -0.82187223 -0.82132936 0.45846176 -0.3394568 0 1 0 0.9959171 0.05663058 -0.07030003 0.9687352 -0.20702809 0.13671666 0.023454461 0.076227 0.9968146 0.14654979 -0.17781375 0.97309065 0.14654979 -0.17781375 0.97309065 0.023454461 0.076227 0.9968146 -0.12101875 0.117114924 0.9857173 0.14654979 -0.17781375 0.97309065 0 1 0 0 1 0 0 1 0 0 1 0 0 1 0 0 1 0 0 1 0 0 1 0 0.57574487 0.33568853 0.7455408 -0.68744755 0.2851345 -0.6679178 0.44526324 0.8338921 0.32613578 -0.32802927 0.8064053 -0.49204394 -0.035184715 0.80924845 0.58641195 -0.58641195 0.80924845 0.035184715 0.4472136 0 0.8944272 0.44717437 0.060534522 0.89239603 -0.14654979 -0.17781375 0.97309065 0.023454461 0.076227 0.9968146 -0.9687352 -0.20702809 0.13671666 -0.9959171 0.05663058 -0.07030003 -0.9959171 0.05663058 -0.07030003 0.023454461 0.076227 0.9968146 -0.97773826 -0.19906048 0.06635349 -0.14654979 -0.17781375 0.97309065 -0.98124576 0.09773364 -0.16614719 0.12101875 0.117114924 0.9857173 0.32802927 0.8064053 -0.49204394 0.68744755 0.2851345 -0.6679178 0.98124576 0.09773364 -0.16614719 0.97773826 -0.19906048 0.06635349 0.68744755 0.2851345 -0.6679178 0.023454461 0.076227 0.9968146 -0.57574487 0.33568853 0.7455408 0.14654979 -0.17781375 0.97309065 -0.57574487 0.33568853 0.7455408 -0.12101875 0.117114924 0.9857173 -0.89239603 0.060534522 -0.44717437 -0.9959171 0.05663058 -0.07030003 -0.68744755 0.2851345 -0.6679178 -0.97773826 -0.19906048 0.06635349 -0.98124576 0.09773364 -0.16614719 0.12101875 0.117114924 0.9857173 -0.14654979 -0.17781375 0.97309065 0.57574487 0.33568853 0.7455408 0.023454461 0.076227 0.9968146 0.44717437 0.060534522 0.89239603 -0.68744755 0.2851345 -0.6679178 -0.98124576 0.09773364 -0.16614719 -0.32802927 0.8064053 -0.49204394 -0.58641195 0.80924845 0.035184715 -0.035184715 0.80924845 0.58641195 0.12101875 0.117114924 0.9857173 0.44526324 0.8338921 0.32613578 0.57574487 0.33568853 0.7455408 0.68744755 0.2851345 -0.6679178 0.9959171 0.05663058 -0.07030003 0.9687352 -0.20702809 0.13671666 0.9959171 0.05663058 -0.07030003 -0.44526324 0.8338921 0.32613578 -0.57574487 0.33568853 0.7455408 0.68744755 0.2851345 -0.6679178 0.32802927 0.8064053 -0.49204394 -0.44526324 0.8338921 0.32613578 0.32802927 0.8064053 -0.49204394 0.58641195 0.80924845 0.035184715 0.035184715 0.80924845 0.58641195 -0.4472136 0 0.8944272 -0.44717437 0.060534522 0.89239603 0.023454461 0.076227 0.9968146 -0.57574487 0.33568853 0.7455408 -0.89239603 0.060534522 -0.44717437 -0.8944272 0 -0.4472136 -0.9687352 -0.20702809 0.13671666 -0.9959171 0.05663058 -0.07030003 0 1 0 0 1 0 0 1 0 0 1 0 -1 0 0 -1 0 0 -1 0 0 -1 0 0 0 0 1 0 0 1 0 0 1 0 0 1 1 0 0 1 0 0 1 0 0 1 0 0 0 0.86848325 0.49571854 0 0.86848325 0.49571854 0 0.86848325 0.49571854 0 0.86848325 0.49571854 -0.12101875 0.117114924 0.9857173 -0.44526324 0.8338921 0.32613578 0.035184715 0.80924845 0.58641195 0.32802927 0.8064053 -0.49204394 0.98124576 0.09773364 -0.16614719 0.58641195 0.80924845 0.035184715 0.9959171 0.05663058 -0.07030003 0.68744755 0.2851345 -0.6679178 0.89239603 0.060534522 -0.44717437 0.023454461 0.076227 0.9968146 -0.44717437 0.060534522 0.89239603 -0.57574487 0.33568853 0.7455408 0.15615828 0.0078079146 0.9877012 0.9877012 0.0078079146 0.15615828 0.023454461 0.076227 0.9968146 0.9959171 0.05663058 -0.07030003 0.18764536 0.07623093 0.9792743 0.9792743 0.07623093 0.18764536 0.32229328 0.5996609 0.73248476 0.73248476 0.5996609 0.32229328 0.17195636 0.94966805 -0.26184264 -0.26184264 0.94966805 0.17195636 -0.9877012 0.0078079146 0.15615828 -0.15615828 0.0078079146 0.9877012 -0.9959171 0.05663058 -0.07030003 0.023454461 0.076227 0.9968146 -0.9792743 0.07623093 0.18764536 -0.18764536 0.07623093 0.9792743 -0.73248476 0.5996609 0.32229328 -0.32229328 0.5996609 0.73248476 0.26184264 0.94966805 0.17195636 -0.17195636 0.94966805 -0.26184264 0.9877012 0.0078079146 0.15615828 0.6682786 -0.34977153 -0.6565544 0.9959171 0.05663058 -0.07030003 0.48426232 -0.4666883 -0.7400622 0.5744752 -0.2833296 -0.7679209 0.078086585 -0.19326429 -0.97803444 -0.89954656 -0.10364341 -0.4243513 -0.7284017 -0.13474455 -0.6717699 -0.73248476 0.5996609 0.32229328 0.26184264 0.94966805 0.17195636 0.9877012 0.0078079146 0.15615828 0.15615828 0.0078079146 0.9877012 0.36283308 -0.8583148 0.36283308 -0.6565544 -0.34977153 0.6682786 -0.22263756 -0.9491391 -0.22263756 -0.4243513 -0.10364341 0.89954656 0.32229328 0.5996609 0.73248476 -0.6717699 -0.13474455 0.7284017 0.17195636 0.94966805 -0.26184264 -0.97803444 -0.19326429 -0.078086585 -0.15615828 0.0078079146 0.9877012 0.6565544 -0.34977153 0.6682786 0.023454461 0.076227 0.9968146 0.7400622 -0.4666883 0.48426232 0.7679209 -0.2833296 0.5744752 0.48426232 -0.4666883 -0.7400622 -0.18359655 -0.5234455 -0.83204395 0.5744752 -0.2833296 -0.7679209 -0.078086585 -0.19326429 -0.97803444 0.89954656 -0.10364341 -0.4243513 0.7400622 -0.4666883 0.48426232 0.83204395 -0.5234455 -0.18359655 0.7679209 -0.2833296 0.5744752 0.97803444 -0.19326429 -0.078086585 0.4243513 -0.10364341 0.89954656 -0.15615828 0.0078079146 0.9877012 -0.9877012 0.0078079146 0.15615828 -0.36283308 -0.8583148 0.36283308 -0.6682786 -0.34977153 -0.6565544 0.22263756 -0.9491391 -0.22263756 0.32229328 0.5996609 0.73248476 -0.4243513 -0.10364341 0.89954656 0.18764536 0.07623093 0.9792743 0.023454461 0.076227 0.9968146 -0.7400622 -0.4666883 0.48426232 -0.7679209 -0.2833296 0.5744752 -0.83204395 -0.5234455 -0.18359655 -0.97803444 -0.19326429 -0.078086585 -0.15615828 0.0078079146 0.9877012 -0.36283308 -0.8583148 0.36283308 0.6565544 -0.34977153 0.6682786 0.22263756 -0.9491391 -0.22263756 0.15615828 0.0078079146 0.9877012 0.023454461 0.076227 0.9968146 -0.6565544 -0.34977153 0.6682786 -0.7400622 -0.4666883 0.48426232 -0.7400622 -0.4666883 0.48426232 0.023454461 0.076227 0.9968146 -0.7679209 -0.2833296 0.5744752 -0.4243513 -0.10364341 0.89954656 -0.26184264 0.94966805 0.17195636 0.73248476 0.5996609 0.32229328 0.7284017 -0.13474455 -0.6717699 0.89954656 -0.10364341 -0.4243513 0.5744752 -0.2833296 -0.7679209 0.89954656 -0.10364341 -0.4243513 0.9959171 0.05663058 -0.07030003 0.9792743 0.07623093 0.18764536 -0.22263756 -0.9491391 -0.22263756 0.6682786 -0.34977153 -0.6565544 0.36283308 -0.8583148 0.36283308 0.9877012 0.0078079146 0.15615828 0.89954656 -0.10364341 -0.4243513 -0.078086585 -0.19326429 -0.97803444 0.7284017 -0.13474455 -0.6717699 -0.26184264 0.94966805 0.17195636 -0.9877012 0.0078079146 0.15615828 -0.9959171 0.05663058 -0.07030003 -0.6682786 -0.34977153 -0.6565544 -0.48426232 -0.4666883 -0.7400622 -0.48426232 -0.4666883 -0.7400622 -0.9959171 0.05663058 -0.07030003 -0.5744752 -0.2833296 -0.7679209 -0.89954656 -0.10364341 -0.4243513 -0.17195636 0.94966805 -0.26184264 -0.32229328 0.5996609 0.73248476 0.6717699 -0.13474455 0.7284017 0.4243513 -0.10364341 0.89954656 0.7679209 -0.2833296 0.5744752 0.4243513 -0.10364341 0.89954656 0.023454461 0.076227 0.9968146 -0.18764536 0.07623093 0.9792743 0.4243513 -0.10364341 0.89954656 0.97803444 -0.19326429 -0.078086585 0.6717699 -0.13474455 0.7284017 -0.17195636 0.94966805 -0.26184264 -0.73248476 0.5996609 0.32229328 -0.89954656 -0.10364341 -0.4243513 -0.9792743 0.07623093 0.18764536 -0.9959171 0.05663058 -0.07030003 -0.48426232 -0.4666883 -0.7400622 -0.5744752 -0.2833296 -0.7679209 0.18359655 -0.5234455 -0.83204395 0.078086585 -0.19326429 -0.97803444 0.6682786 -0.34977153 -0.6565544 -0.22263756 -0.9491391 -0.22263756 0.48426232 -0.4666883 -0.7400622 -0.7400622 -0.4666883 0.48426232 -0.22263756 -0.9491391 -0.22263756 -0.6565544 -0.34977153 0.6682786 -0.7679209 -0.2833296 0.5744752 -0.4243513 -0.10364341 0.89954656 -0.97803444 -0.19326429 -0.078086585 0.9792743 0.07623093 0.18764536 0.89954656 -0.10364341 -0.4243513 0.73248476 0.5996609 0.32229328 0.6565544 -0.34977153 0.6682786 0.22263756 -0.9491391 -0.22263756 0.7400622 -0.4666883 0.48426232 -0.48426232 -0.4666883 -0.7400622 0.22263756 -0.9491391 -0.22263756 -0.6682786 -0.34977153 -0.6565544 -0.5744752 -0.2833296 -0.7679209 -0.89954656 -0.10364341 -0.4243513 0.078086585 -0.19326429 -0.97803444 -0.18764536 0.07623093 0.9792743 0.4243513 -0.10364341 0.89954656 -0.32229328 0.5996609 0.73248476 -0.7284017 -0.13474455 -0.6717699 0.26184264 0.94966805 0.17195636 0.078086585 -0.19326429 -0.97803444 -0.6717699 -0.13474455 0.7284017 -0.97803444 -0.19326429 -0.078086585 -0.4243513 -0.10364341 0.89954656 </float_array>
          <technique_common>
            <accessor source="#normals-array" count="438" stride="3">
              <param name="X" type="float" />
              <param name="Y" type="float" />
              <param name="Z" type="float" />
            </accessor>
          </technique_common>
        </source>
        <vertices id="vertices">
          <input semantic="POSITION" source="#positions" />
          <input semantic="TEXCOORD" source="#texcoords" />
          <input semantic="COLOR" source="#colors" />
          <input semantic="NORMAL" source="#normals" />
        </vertices>
        <polylist material="material3" count="8">
          <input semantic="VERTEX" source="#vertices" offset="0" />
          <vcount>4 4 4 4 3 3 3 3 </vcount>
          <p>0 1 2 3 4 5 6 7 8 9 10 11 12 13 14 15 16 17 18 19 20 21 22 23 24 25 26 27 </p>
        </polylist>
        <polylist material="material4" count="12">
          <input semantic="VERTEX" source="#vertices" offset="0" />
          <vcount>3 3 3 3 3 3 3 3 3 3 3 4 </vcount>
          <p>28 29 30 29 31 30 30 31 32 33 34 35 34 36 35 35 36 37 38 39 40 39 41 40 40 41 42 43 44 45 44 46 45 47 48 49 50 </p>
        </polylist>
        <polylist material="material2" count="36">
          <input semantic="VERTEX" source="#vertices" offset="0" />
          <vcount>4 4 4 4 4 4 4 4 4 4 3 3 4 4 4 4 4 4 4 4 4 4 4 4 4 4 4 3 3 3 3 3 3 3 3 3 </vcount>
          <p>51 52 54 53 53 54 56 55 55 56 58 57 59 60 62 61 61 62 64 63 63 64 66 65 67 68 70 69 69 70 72 71 73 74 76 75 75 76 78 77 79 80 81 80 82 81 83 84 85 86 87 88 89 90 91 92 93 94 95 96 97 98 99 100 101 102 103 104 105 106 107 108 109 110 111 112 113 114 115 116 117 118 119 120 121 122 123 124 125 126 127 128 129 130 131 132 133 134 135 136 137 138 139 140 141 142 143 144 145 146 147 148 149 150 151 152 153 154 155 156 157 158 159 160 161 162 163 164 165 166 167 168 169 </p>
        </polylist>
        <polylist material="material1" count="42">
          <input semantic="VERTEX" source="#vertices" offset="0" />
          <vcount>4 4 4 4 4 4 4 4 4 4 4 4 3 3 3 3 3 3 3 3 3 3 3 3 3 3 3 3 4 4 4 4 4 4 4 4 4 4 3 3 3 3 </vcount>
          <p>170 171 173 172 172 173 175 174 174 175 177 176 178 179 181 180 180 181 183 182 182 183 185 184 186 187 189 188 188 189 191 190 192 193 195 194 194 195 197 196 198 199 201 200 200 201 203 202 204 205 206 205 207 206 206 207 208 209 210 211 210 212 211 211 212 213 214 215 216 215 217 216 216 217 218 219 220 221 220 222 221 221 222 223 224 225 226 225 227 226 228 229 230 229 231 230 232 233 234 235 236 237 238 239 240 241 242 243 244 245 246 247 248 249 250 251 252 253 254 255 256 257 258 259 260 261 262 263 264 265 266 267 268 269 270 271 272 273 274 275 276 277 278 279 280 281 282 283 </p>
        </polylist>
        <polylist material="material0" count="74">
          <input semantic="VERTEX" source="#vertices" offset="0" />
          <vcount>4 4 4 4 4 4 4 4 3 3 3 3 3 3 3 3 3 3 3 3 3 3 3 3 3 3 3 3 3 3 3 3 3 3 3 3 3 3 3 3 3 3 3 3 3 3 3 3 3 3 3 3 3 3 3 3 3 3 3 3 3 3 3 3 3 3 3 3 3 3 3 3 3 3 </vcount>
          <p>284 285 287 286 286 287 289 288 288 289 291 290 290 291 293 292 294 295 297 296 296 297 299 298 298 299 301 300 300 301 303 302 304 305 306 305 307 306 306 307 308 309 310 311 310 312 311 311 312 313 314 315 316 315 317 316 316 317 318 319 320 321 320 322 321 321 322 323 324 325 326 325 327 326 326 327 328 329 330 331 330 332 331 331 332 333 334 335 336 335 337 336 336 337 338 339 340 341 340 342 341 341 342 343 344 345 346 345 347 346 348 349 350 349 351 350 352 353 354 353 355 354 356 357 358 357 359 358 360 361 362 361 363 362 364 365 366 365 367 366 368 369 370 369 371 370 372 373 374 373 375 374 376 377 378 377 379 378 380 381 382 381 383 382 384 385 386 385 387 386 388 389 390 389 391 390 392 393 394 393 395 394 396 397 398 397 399 398 400 401 402 401 403 402 404 405 406 405 407 406 408 409 410 411 412 413 414 415 416 417 418 419 420 421 422 423 424 425 426 427 428 429 430 431 432 433 434 435 436 437 </p>
        </polylist>
      </mesh>
    </geometry>
  </library_geometries>
  <library_visual_scenes>
    <visual_scene id="scene0" name="c8_gym_01">
      <node id="node" name="c8_gym_01" type="NODE">
        <instance_geometry url="#geometry">
          <bind_material>
            <technique_common>
              <instance_material symbol="material0" target="#material0">
                <bind_vertex_input semantic="tc" input_semantic="TEXCOORD" />
              </instance_material>
              <instance_material symbol="material1" target="#material1">
                <bind_vertex_input semantic="tc" input_semantic="TEXCOORD" />
              </instance_material>
              <instance_material symbol="material2" target="#material2">
                <bind_vertex_input semantic="tc" input_semantic="TEXCOORD" />
              </instance_material>
              <instance_material symbol="material3" target="#material3">
                <bind_vertex_input semantic="tc" input_semantic="TEXCOORD" />
              </instance_material>
              <instance_material symbol="material4" target="#material4">
                <bind_vertex_input semantic="tc" input_semantic="TEXCOORD" />
              </instance_material>
            </technique_common>
          </bind_material>
        </instance_geometry>
      </node>
    </visual_scene>
  </library_visual_scenes>
  <scene>
    <instance_visual_scene url="#scene0" />
  </scene>
</COLLADA>