<?xml version='1.0' encoding='utf-8'?>
<COLLADA xmlns="http://www.collada.org/2005/11/COLLADASchema" version="1.4.1">
  <asset>
    <created>2026-07-27T16:58:13Z</created>
    <modified>2026-07-27T16:58:13Z</modified>
  </asset>
  <library_images>
    <image id="image-c12_gym_03">
      <init_from>c12_gym_03.png</init_from>
    </image>
    <image id="image-h_kage">
      <init_from>h_kage.png</init_from>
    </image>
    <image id="image-c12_gym_02">
      <init_from>c12_gym_02.png</init_from>
    </image>
    <image id="image-h_mado">
      <init_from>h_mado.png</init_from>
    </image>
    <image id="image-c12_gym_01">
      <init_from>c12_gym_01.png</init_from>
    </image>
    <image id="image-hata_1">
      <init_from>hata_1.png</init_from>
    </image>
  </library_images>
  <library_materials>
    <material id="material0" name="c12_gym_01">
      <instance_effect url="#effect0" />
    </material>
    <material id="material1" name="c12_gym_02">
      <instance_effect url="#effect1" />
    </material>
    <material id="material2" name="c12_gym_03">
      <instance_effect url="#effect2" />
    </material>
    <material id="material3" name="h_kage">
      <instance_effect url="#effect3" />
    </material>
    <material id="material4" name="h_mado">
      <instance_effect url="#effect4" />
    </material>
    <material id="material5" name="hata_1">
      <instance_effect url="#effect5" />
    </material>
  </library_materials>
  <library_effects>
    <effect id="effect0" name="c12_gym_01">
      <profile_COMMON>
        <newparam sid="Image-surface">
          <surface type="2D">
            <init_from>image-c12_gym_01</init_from>
            <format>A8R8G8B8</format>
          </surface>
        </newparam>
        <newparam sid="Image-sampler">
          <sampler2D>
            <source>Image-surface</source>
            <wrap_s>MIRROR</wrap_s>
            <wrap_t>MIRROR</wrap_t>
            <minfilter>NEAREST</minfilter>
            <magfilter>NEAREST</magfilter>
            <mipfilter>NEAREST</mipfilter>
          </sampler2D>
        </newparam>
        <technique sid="common">
          <phong>
            <emission>
              <color>0 0 0 1</color>
            </emission>
            <ambient>
              <color>0.8064516 0.8064516 0.8064516 1</color>
            </ambient>
            <diffuse>
              <texture texture="Image-sampler" texcoord="tc" />
            </diffuse>
            <specular>
              <color>0 0 0 1</color>
            </specular>
            <transparent>
              <texture texture="Image-sampler" texcoord="tc" />
            </transparent>
          </phong>
        </technique>
      </profile_COMMON>
    </effect>
    <effect id="effect1" name="c12_gym_02">
      <profile_COMMON>
        <newparam sid="Image-surface">
          <surface type="2D">
            <init_from>image-c12_gym_02</init_from>
            <format>A8R8G8B8</format>
          </surface>
        </newparam>
        <newparam sid="Image-sampler">
          <sampler2D>
            <source>Image-surface</source>
            <wrap_s>WRAP</wrap_s>
            <wrap_t>WRAP</wrap_t>
            <minfilter>NEAREST</minfilter>
            <magfilter>NEAREST</magfilter>
            <mipfilter>NEAREST</mipfilter>
          </sampler2D>
        </newparam>
        <technique sid="common">
          <phong>
            <emission>
              <color>0 0 0 1</color>
            </emission>
            <ambient>
              <color>0.8064516 0.8064516 0.8064516 1</color>
            </ambient>
            <diffuse>
              <texture texture="Image-sampler" texcoord="tc" />
            </diffuse>
            <specular>
              <color>0 0 0 1</color>
            </specular>
          </phong>
        </technique>
      </profile_COMMON>
    </effect>
    <effect id="effect2" name="c12_gym_03">
      <profile_COMMON>
        <newparam sid="Image-surface">
          <surface type="2D">
            <init_from>image-c12_gym_03</init_from>
            <format>A8R8G8B8</format>
          </surface>
        </newparam>
        <newparam sid="Image-sampler">
          <sampler2D>
            <source>Image-surface</source>
            <wrap_s>MIRROR</wrap_s>
            <wrap_t>WRAP</wrap_t>
            <minfilter>NEAREST</minfilter>
            <magfilter>NEAREST</magfilter>
            <mipfilter>NEAREST</mipfilter>
          </sampler2D>
        </newparam>
        <technique sid="common">
          <phong>
            <emission>
              <color>0 0 0 1</color>
            </emission>
            <ambient>
              <color>0.8064516 0.8064516 0.8064516 1</color>
            </ambient>
            <diffuse>
              <texture texture="Image-sampler" texcoord="tc" />
            </diffuse>
            <specular>
              <color>0 0 0 1</color>
            </specular>
            <transparent>
              <texture texture="Image-sampler" texcoord="tc" />
            </transparent>
          </phong>
        </technique>
      </profile_COMMON>
    </effect>
    <effect id="effect3" name="h_kage">
      <profile_COMMON>
        <newparam sid="Image-surface">
          <surface type="2D">
            <init_from>image-h_kage</init_from>
            <format>A8R8G8B8</format>
          </surface>
        </newparam>
        <newparam sid="Image-sampler">
          <sampler2D>
            <source>Image-surface</source>
            <wrap_s>WRAP</wrap_s>
            <wrap_t>WRAP</wrap_t>
            <minfilter>NEAREST</minfilter>
            <magfilter>NEAREST</magfilter>
            <mipfilter>NEAREST</mipfilter>
          </sampler2D>
        </newparam>
        <technique sid="common">
          <phong>
            <emission>
              <color>0 0 0 1</color>
            </emission>
            <ambient>
              <color>1 1 1 1</color>
            </ambient>
            <diffuse>
              <texture texture="Image-sampler" texcoord="tc" />
            </diffuse>
            <specular>
              <color>0 0 0 1</color>
            </specular>
            <transparent>
              <texture texture="Image-sampler" texcoord="tc" />
            </transparent>
          </phong>
        </technique>
      </profile_COMMON>
    </effect>
    <effect id="effect4" name="h_mado">
      <profile_COMMON>
        <newparam sid="Image-surface">
          <surface type="2D">
            <init_from>image-h_mado</init_from>
            <format>A8R8G8B8</format>
          </surface>
        </newparam>
        <newparam sid="Image-sampler">
          <sampler2D>
            <source>Image-surface</source>
            <wrap_s>WRAP</wrap_s>
            <wrap_t>WRAP</wrap_t>
            <minfilter>NEAREST</minfilter>
            <magfilter>NEAREST</magfilter>
            <mipfilter>NEAREST</mipfilter>
          </sampler2D>
        </newparam>
        <technique sid="common">
          <phong>
            <emission>
              <color>0 0 0 1</color>
            </emission>
            <ambient>
              <color>1 1 1 1</color>
            </ambient>
            <diffuse>
              <texture texture="Image-sampler" texcoord="tc" />
            </diffuse>
            <specular>
              <color>0 0 0 1</color>
            </specular>
          </phong>
        </technique>
      </profile_COMMON>
    </effect>
    <effect id="effect5" name="hata_1">
      <profile_COMMON>
        <newparam sid="Image-surface">
          <surface type="2D">
            <init_from>image-hata_1</init_from>
            <format>A8R8G8B8</format>
          </surface>
        </newparam>
        <newparam sid="Image-sampler">
          <sampler2D>
            <source>Image-surface</source>
            <wrap_s>WRAP</wrap_s>
            <wrap_t>WRAP</wrap_t>
            <minfilter>NEAREST</minfilter>
            <magfilter>NEAREST</magfilter>
            <mipfilter>NEAREST</mipfilter>
          </sampler2D>
        </newparam>
        <technique sid="common">
          <phong>
            <emission>
              <color>0 0 0 1</color>
            </emission>
            <ambient>
              <color>0.8064516 0.8064516 0.8064516 1</color>
            </ambient>
            <diffuse>
              <texture texture="Image-sampler" texcoord="tc" />
            </diffuse>
            <specular>
              <color>0 0 0 1</color>
            </specular>
            <transparent>
              <texture texture="Image-sampler" texcoord="tc" />
            </transparent>
          </phong>
        </technique>
      </profile_COMMON>
    </effect>
  </library_effects>
  <library_geometries>
    <geometry id="geometry" name="c12_gym_01">
      <mesh>
        <source id="positions">
          <float_array id="positions-array" count="1788">-39.734375 21 23.121094 -28.011719 21 23.121094 -28.011719 36 23.121094 -39.734375 36 23.121094 53.652344 21 23.121094 65.37891 21 23.121094 65.37891 36 23.121094 53.652344 36 23.121094 61 17 8.4453125 61 17 -40 61 33 -40 61 33 8.4453125 -45 17 8.4453125 -45 33 8.4453125 -45 33 -40 -45 17 -40 -36 16 11 -14 16 11 -14 44 11 -36 44 11 31 16 11 53 16 11 53 44 11 31 44 11 58 2 -52 -48 2 -52 58 2 -44 -36 2 -44 58 2 36 -36 2 36 58 2 48 -36 2 48 -48 2 36 -36 2 36 -36 2 -44 -48 2 -52 58 2 36 70 2 36 70 2 -44 58 2 -44 -36 2 48 -36 2 36 -48 2 36 58 2 -44 70 2 -44 58 2 -52 58 2 48 70 2 36 58 2 36 28 50 28 28 50 7.328125 8 62 28 8 62 7.328125 -12 50 28 -12 50 7.328125 28 77 16 28 77 -45.671875 8 92 16 8 92 -45.671875 -12 77 16 -12 77 -45.671875 22 64 16 22 64 -45.671875 22 58 -45.69922 22 58 16 64 40 16 64 40 -45.671875 64 46 -45.671875 64 46 16 22 64 16 64 46 16 64 46 -45.671875 22 64 -45.671875 22 58 16 64 40 16 64 46 16 22 64 16 -12 44 7.328125 -12 44 28 -12 50 28 -12 50 7.328125 28 44 28 28 44 7.328125 28 50 7.328125 28 50 28 8 56 28 28 44 28 28 50 28 8 62 28 -12 44 28 8 56 28 8 62 28 -12 50 28 -12 71 -45.671875 -12 71 16 -12 77 16 -12 77 -45.671875 28 71 16 28 71 -45.671875 28 77 -45.671875 28 77 16 8 86 16 28 71 16 28 77 16 8 92 16 -12 71 16 8 86 16 8 92 16 -12 77 16 -6 64 16 -6 58 16 -6 58 -45.69922 -6 64 -45.671875 -48 39 -45.671875 -48 39 16 -48 45 16 -48 45 -45.671875 -48 45 16 -6 64 16 -6 64 -45.671875 -48 45 -45.671875 -48 39 16 -6 58 16 -6 64 16 -48 45 16 8 72 15.0390625 13.921875 72 15.0390625 2.078125 72 15.0390625 8 72 15.0390625 3.2109375 75.48047 15.0390625 2.078125 72 15.0390625 12.7890625 75.48047 15.0390625 13.921875 72 15.0390625 12.7890625 68.51953 15.0390625 13.921875 72 15.0390625 3.2109375 68.51953 15.0390625 2.078125 72 15.0390625 -42.375 35 23.121094 -39.734375 35 23.121094 -39.734375 38 23.121094 -42.375 38 23.121094 49.378906 3 20.121094 49.378906 3 26.121094 50.378906 7 25.121094 50.378906 7 21.121094 -44.01172 3 20.121094 -44.01172 3 26.121094 -43.01172 7 25.121094 -43.01172 7 21.121094 50.378906 7 25.121094 54.378906 7 25.121094 54.378906 7 21.121094 50.378906 7 21.121094 49.378906 3 26.121094 55.378906 3 26.121094 54.378906 7 25.121094 50.378906 7 25.121094 51.015625 7 23.121094 53.652344 7 23.121094 53.652344 35 23.121094 51.015625 35 23.121094 51.015625 35 23.121094 53.652344 35 23.121094 53.652344 38 23.121094 51.015625 38 23.121094 12.7890625 68.51953 15.0390625 3.2109375 68.51953 15.0390625 6.171875 66.37109 15.0390625 9.828125 66.37109 15.0390625 55.378906 3 26.121094 55.378906 3 20.121094 54.378906 7 21.121094 54.378906 7 25.121094 0.19921875 72 16.757813 0.19921875 72 11.09375 -7 74 11.09375 -7 74 16.757813 1.6875 67.41406 16.757813 0.19921875 72 16.757813 -7 74 16.757813 -4 68.41406 16.757813 15.800781 72 16.757813 14.3125 67.41406 16.757813 19 68.41406 16.757813 23 74 16.757813 15.800781 72 11.09375 15.800781 72 16.757813 23 74 16.757813 23 74 11.09375 13.921875 72 16.757813 12.7890625 75.48047 16.757813 12.7890625 75.48047 15.0390625 13.921875 72 15.0390625 12.7890625 68.51953 16.757813 13.921875 72 16.757813 13.921875 72 15.0390625 12.7890625 68.51953 15.0390625 6.171875 66.37109 16.757813 9.828125 66.37109 16.757813 9.828125 66.37109 15.0390625 6.171875 66.37109 15.0390625 3.2109375 68.51953 16.757813 6.171875 66.37109 16.757813 6.171875 66.37109 15.0390625 3.2109375 68.51953 15.0390625 2.078125 72 16.757813 3.2109375 68.51953 16.757813 3.2109375 68.51953 15.0390625 2.078125 72 15.0390625 3.2109375 75.48047 16.757813 2.078125 72 16.757813 2.078125 72 15.0390625 3.2109375 75.48047 15.0390625 3.2109375 75.48047 15.0390625 12.7890625 75.48047 15.0390625 9.828125 77.62891 15.0390625 6.171875 77.62891 15.0390625 9.828125 66.37109 16.757813 12.7890625 68.51953 16.757813 12.7890625 68.51953 15.0390625 9.828125 66.37109 15.0390625 -38.01172 3 26.121094 -38.01172 3 20.121094 -39.01172 7 21.121094 -39.01172 7 25.121094 15.800781 72 16.757813 14.3125 76.58594 16.757813 12.7890625 75.48047 16.757813 13.921875 72 16.757813 14.3125 67.41406 16.757813 15.800781 72 16.757813 13.921875 72 16.757813 12.7890625 68.51953 16.757813 10.410156 64.58203 16.757813 14.3125 67.41406 16.757813 12.7890625 68.51953 16.757813 9.828125 66.37109 16.757813 5.5898438 64.58203 16.757813 10.410156 64.58203 16.757813 9.828125 66.37109 16.757813 6.171875 66.37109 16.757813 1.6875 67.41406 16.757813 5.5898438 64.58203 16.757813 6.171875 66.37109 16.757813 3.2109375 68.51953 16.757813 0.19921875 72 16.757813 1.6875 67.41406 16.757813 3.2109375 68.51953 16.757813 2.078125 72 16.757813 1.6875 76.58594 16.757813 0.19921875 72 16.757813 2.078125 72 16.757813 3.2109375 75.48047 16.757813 5.5898438 79.41797 16.757813 1.6875 76.58594 16.757813 3.2109375 75.48047 16.757813 6.171875 77.62891 16.757813 10.410156 79.41797 16.757813 5.5898438 79.41797 16.757813 6.171875 77.62891 16.757813 9.828125 77.62891 16.757813 14.3125 76.58594 16.757813 10.410156 79.41797 16.757813 9.828125 77.62891 16.757813 12.7890625 75.48047 16.757813 15.800781 72 11.09375 14.3125 76.58594 11.09375 14.3125 76.58594 16.757813 15.800781 72 16.757813 19 68.41406 11.09375 23 74 11.09375 23 74 16.757813 19 68.41406 16.757813 -7 74 11.09375 -4 68.41406 11.09375 -4 68.41406 16.757813 -7 74 16.757813 1.6875 76.58594 11.09375 0.19921875 72 11.09375 0.19921875 72 16.757813 1.6875 76.58594 16.757813 5.5898438 79.41797 11.09375 1.6875 76.58594 11.09375 1.6875 76.58594 16.757813 5.5898438 79.41797 16.757813 10.410156 79.41797 11.09375 5.5898438 79.41797 11.09375 5.5898438 79.41797 16.757813 10.410156 79.41797 16.757813 14.3125 76.58594 11.09375 10.410156 79.41797 11.09375 10.410156 79.41797 16.757813 14.3125 76.58594 16.757813 -43.01172 7 25.121094 -39.01172 7 25.121094 -39.01172 7 21.121094 -43.01172 7 21.121094 -28.925781 12.9921875 46.378906 -19.074219 12.9921875 46.378906 -19.074219 18.007813 45.785156 -28.925781 18.007813 45.785156 -17 4 46.08203 -17 4 34.08203 -19.371094 21.203125 36.453125 -19.371094 21.203125 43.710938 -31 4 34.08203 -31 4 46.08203 -28.628906 21.203125 43.710938 -28.628906 21.203125 36.453125 -28.628906 21.203125 36.453125 -28.628906 21.203125 43.710938 -19.371094 21.203125 43.710938 -19.371094 21.203125 36.453125 -19.371094 21.203125 43.710938 -28.628906 21.203125 43.710938 -31 4 46.08203 -17 4 46.08203 32.210938 19.738281 42.9375 48.375 19.738281 42.9375 48.375 41.5 34.453125 32.210938 41.5 34.453125 -31.539063 19.738281 42.9375 -15.207031 19.738281 42.9375 -15.207031 41.5 34.453125 -31.539063 41.5 34.453125 47 4 46.08203 47 4 34.08203 44.628906 21.203125 36.453125 44.628906 21.203125 43.710938 33 4 34.08203 33 4 46.08203 35.371094 21.203125 43.710938 35.371094 21.203125 36.453125 35.371094 21.203125 36.453125 35.371094 21.203125 43.710938 44.628906 21.203125 43.710938 44.628906 21.203125 36.453125 44.628906 21.203125 43.710938 35.371094 21.203125 43.710938 33 4 46.08203 47 4 46.08203 -44.01172 3 26.121094 -38.01172 3 26.121094 -39.01172 7 25.121094 -43.01172 7 25.121094 -42.375 7 23.121094 -39.734375 7 23.121094 -39.734375 35 23.121094 -42.375 35 23.121094 35.07422 12.9921875 46.378906 44.92578 12.9921875 46.378906 44.92578 18.007813 45.785156 35.07422 18.007813 45.785156 26 59 13 26 75.83203 13 8 59 13 8 88.83203 13 -10 59 13 -10 75.83203 13 -32 11 13 -32 11 19 -20 11 26 -20 11 32 36 11 32 48 11 19 36 11 26 48 11 13 -20 3 32 -20 10.980469 32 -48 10.980469 32 -48 3 32 64 10.980469 32 64 10.980469 16 61.429688 10.980469 16 61.429688 10.980469 29.132813 36 10.980469 32 64 10.980469 32 61.429688 10.980469 29.132813 37.01172 10.980469 29.132813 64 3 32 64 3 16 64 10.980469 16 64 10.980469 32 36 3 32 64 3 32 64 10.980469 32 36 10.980469 32 -48.078125 3 16 -32 3 16 -32 16 16 -48.078125 16 16 -48.078125 3 -46 -48.078125 3 16 -48.078125 16 16 -48.078125 16 -46 -48.078125 16 16 -32 16 16 -32 16 -46 -48.078125 16 -46 -46 44 13 -46 4 13 -10 4 13 -10 44 13 -48 10.980469 32 -45.429688 10.980469 29.132813 -45.429688 10.980469 16 -48 10.980469 16 26 59 13 26 59 -43.054688 26 75.83203 -43.054688 26 75.83203 13 -10 59 -43.054688 -10 59 13 -10 75.83203 13 -10 75.83203 -43.054688 62 4 13 62 44 13 26 44 13 26 4 13 -46 4 -43.054688 -46 4 13 -46 44 13 -46 44 -43.054688 62 4 13 62 4 -43.054688 62 44 -43.054688 62 44 13 48 16 16 64 16 16 64 16 -46 47.69922 16 -46 64 3 16 64 3 -46 64 16 -46 64 16 16 48 3 16 64 3 16 64 16 16 48 16 16 -32 11 13 -20 11 26 -20 16 26 -32 16 13 -6 11 32 -6 11 26 -20 11 26 -20 11 32 48 11 13 48 16 13 36 16 26 36 11 26 22 11 32 36 11 32 36 11 26 22 11 26 22 11 26 36 11 26 36 16 26 22 16 26 -20 3 32 -20 11 32 -32 11 19 -32 3 19 -6 16 26 -8 16 13 -20 16 13 -20 16 26 36 3 32 48 3 19 48 11 19 36 11 32 48 3 19 48 3 13 48 11 13 48 11 19 -6 3 32 -6 11 32 -20 11 32 -20 3 32 22 16 26 36 16 26 36 16 13 24 16 13 22 3 32 36 3 32 36 11 32 22 11 32 -6 11 26 -6 16 26 -20 16 26 -20 11 26 -32 3 19 -32 11 19 -32 11 13 -32 3 13 -6 44 20 -6.015625 16 20 -6.015625 16 4.203125 -6 44 4.203125 -6.015625 16 20 22 16 20 22 16 4.203125 -6.015625 16 4.203125 22 16 20 22 44 20 22 44 4.203125 22 16 4.203125 22 44 4.203125 -6 44 4.203125 -6.015625 16 4.203125 22 16 4.203125 22 16 24 22 16 20 -6.015625 16 20 -6.015625 16 24 22 16 24 22 44 24 22 44 20 22 16 20 -6 44 24 -6.015625 16 24 -6.015625 16 20 -6 44 20 -12 16 24 -6.015625 16 24 -6 44 24 -12 44 24 -12 16 11.203125 -12 16 24 -12 44 24 -12 44 11.203125 28 16 24 28 16 11.203125 28 44 11.203125 28 44 24 22 16 24 28 16 24 28 44 24 22 44 24 -6 3 42.070313 22 3 42.070313 22 16 24 -6.015625 16 24 -20 10.980469 32 -21.011719 10.980469 29.132813 -45.429688 10.980469 29.132813 -48 10.980469 32 -48 3 32 -48 10.980469 32 -48 10.980469 16 -48 3 16 -12 44 25.53125 28 44 25.53125 8 57 25.53125 26 59 13 26 44 13 62 44 13 -6 11 26 -6 11 32 -6 3 32 -20 16 26 -20 16 13 -32 16 13 22 11 26 22 16 26 24 16 13 48 3 16 48 16 16 47.69922 16 -46 8 59 13 26 44 13 26 59 13 -32 16 -46 -32 16 16 -32 3 16 22 11 26 22 3 32 22 11 32 36 16 26 48 16 13 36 16 13 -10 44 13 8 59 13 -10 59 13 -6 11 26 -8 16 13 -6 16 26 -10 44 13 -10 59 13 -46 44 13 -6 3 42.070313 -6.015625 16 24 -6.015625 3 24 22 16 24 22 3 42.070313 22 3 24 </float_array>
          <technique_common>
            <accessor source="#positions-array" count="596" stride="3">
              <param name="X" type="float" />
              <param name="Y" type="float" />
              <param name="Z" type="float" />
            </accessor>
          </technique_common>
        </source>
        <source id="texcoords">
          <float_array id="texcoords-array" count="1192">0 0 1 0 1 1 0 1 0 0 1 0 1 1 0 1 -0.07421875 0 -0.07421875 2.5585938 0.76953125 2.5585938 0.76953125 0 -0.171875 -1.1445313 1.21875 -1.1445313 1.21875 2.2929688 -0.171875 2.2929688 -0.05859375 -0.32421875 1.0664063 -0.32421875 1.0664063 2.2148438 -0.05859375 2.2148438 -0.05859375 -0.32421875 1.0664063 -0.32421875 1.0664063 2.2148438 -0.05859375 2.2148438 1.0234375 -1.2265625 0.0390625 -1.2265625 1.0234375 -1.2890625 0.1484375 -1.2890625 1.0234375 -1.890625 0.1484375 -1.890625 1.0234375 -2.0546875 0.1484375 -2.0546875 -0.7421875 -1.203125 -0.7421875 -1.3359375 -0.140625 -1.3359375 -0.09375 -1.203125 1.2265625 -1.921875 1.2265625 -2.0390625 1.8828125 -2.0390625 1.890625 -1.921875 -0.9765625 -1.203125 -0.8203125 -1.3359375 -0.8203125 -1.203125 1.9921875 -2.3984375 1.9453125 -2.171875 2.0390625 -2.171875 1.9765625 -2.0546875 2.1796875 -2.0546875 2.09375 -1.890625 2.09375 1.0117188 2.9609375 1.0117188 2.09375 1.3398438 2.9609375 1.3398438 2.09375 1.0117188 2.9609375 1.0117188 -0.00390625 0.018554688 1.75 0.018554688 -0.00390625 0.3408203 1.75 0.3408203 -0.00390625 0.018554688 1.75 0.018554688 -1.0664063 0.41015625 -0.33984375 0.41015625 -0.33984375 0.3466797 -1.0664063 0.3466797 -1.0664063 0.3466797 -0.33984375 0.3466797 -0.33984375 0.41015625 -1.0664063 0.41015625 0.09375 1.0117188 0.09375 0.48046875 1.8476563 0.48046875 1.8476563 1.0117188 -1.0664063 0.3466797 -0.33984375 0.3466797 -0.33984375 0.41015625 -1.0664063 0.41015625 -1.0664063 0.3466797 -0.33984375 0.3466797 -0.33984375 0.41015625 -1.0664063 0.41015625 -1.0664063 0.3466797 -0.33984375 0.3466797 -0.33984375 0.41015625 -1.0664063 0.41015625 -1.0664063 0.3466797 -0.33984375 0.3466797 -0.33984375 0.41015625 -1.0664063 0.41015625 -1.0664063 0.3466797 -0.33984375 0.3466797 -0.33984375 0.41015625 -1.0664063 0.41015625 -1.0664063 0.3466797 -0.33984375 0.3466797 -0.33984375 0.41015625 -1.0664063 0.41015625 -1.0664063 0.3466797 -0.33984375 0.3466797 -0.33984375 0.41015625 -1.0664063 0.41015625 -1.0664063 0.3466797 -0.33984375 0.3466797 -0.33984375 0.41015625 -1.0664063 0.41015625 -1.0664063 0.3466797 -0.33984375 0.3466797 -0.33984375 0.41015625 -1.0664063 0.41015625 -0.33984375 0.41015625 -0.33984375 0.3466797 -1.0664063 0.3466797 -1.0664063 0.41015625 -1.0664063 0.3466797 -0.33984375 0.3466797 -0.33984375 0.41015625 -1.0664063 0.41015625 0.09375 0.48046875 0.09375 1.0117188 1.8476563 1.0117188 1.8476563 0.48046875 -1.0664063 0.3466797 -0.33984375 0.3466797 -0.33984375 0.41015625 -1.0664063 0.41015625 2 0.5 2.2070313 0.5 1.8007813 0.5 2 0.5 1.8359375 0.5546875 1.8007813 0.5 2.1679688 0.5546875 2.2070313 0.5 2.1679688 0.4482422 2.2070313 0.5 1.8359375 0.4482422 1.8007813 0.5 4.7851563 0.61328125 4.9335938 0.61328125 4.9335938 0.6845703 4.7851563 0.6845703 4.78125 0.5498047 4.84375 0.5498047 4.84375 0.5966797 4.78125 0.5966797 4.78125 0.5498047 4.84375 0.5498047 4.84375 0.5966797 4.78125 0.5966797 4.8828125 0.5498047 4.9921875 0.5498047 4.9921875 0.6064453 4.8828125 0.6064453 4.6523438 0.5498047 4.7148438 0.5498047 4.7148438 0.5966797 4.6523438 0.5966797 4.6328125 0.6113281 4.7695313 0.6113281 4.7695313 0.98828125 4.6328125 0.98828125 4.7851563 0.61328125 4.9335938 0.61328125 4.9335938 0.6845703 4.7851563 0.6845703 2.1679688 0.4482422 1.8359375 0.4482422 1.9335938 0.41210938 2.0703125 0.41210938 4.78125 0.5498047 4.84375 0.5498047 4.84375 0.5966797 4.78125 0.5966797 1.265625 0.82910156 1.265625 0.8886719 1.265625 0.8886719 1.265625 0.82910156 3.453125 0.6035156 3.453125 0.484375 3.6875 0.484375 3.6875 0.6035156 3.453125 0.6035156 3.453125 0.484375 3.6875 0.484375 3.6875 0.6035156 1.265625 0.8886719 1.265625 0.82910156 1.265625 0.82910156 1.265625 0.8886719 0.9375 0.7890625 1.109375 0.7890625 1.109375 0.7890625 0.9375 0.7890625 0.9375 0.76171875 1.109375 0.76171875 1.109375 0.76171875 0.9375 0.76171875 0.9375 0.7890625 1.109375 0.7890625 1.109375 0.7890625 0.9375 0.7890625 0.9375 0.7890625 1.109375 0.7890625 1.109375 0.7890625 0.9375 0.7890625 0.9375 0.8378906 1.109375 0.8378906 1.109375 0.8378906 0.9375 0.8378906 0.9375 0.7753906 1.109375 0.7753906 1.109375 0.7753906 0.9375 0.7753906 1.8359375 0.5546875 2.1679688 0.5546875 2.0703125 0.59472656 1.9335938 0.59472656 0.9375 0.8232422 1.109375 0.8232422 1.109375 0.8232422 0.9375 0.8232422 4.78125 0.5498047 4.84375 0.5498047 4.84375 0.5966797 4.78125 0.5966797 3.6757813 0.54296875 3.6328125 0.54296875 3.6367188 0.5253906 3.671875 0.5253906 3.6757813 0.54296875 3.6328125 0.54296875 3.6367188 0.5253906 3.671875 0.5253906 3.6757813 0.54296875 3.6328125 0.54296875 3.6367188 0.5253906 3.671875 0.5253906 3.6757813 0.54296875 3.6328125 0.54296875 3.6367188 0.5253906 3.671875 0.5253906 3.6757813 0.54296875 3.6328125 0.54296875 3.6367188 0.5253906 3.671875 0.5253906 3.6757813 0.54296875 3.6328125 0.54296875 3.6367188 0.5253906 3.671875 0.5253906 3.6757813 0.54296875 3.6328125 0.54296875 3.6367188 0.5253906 3.671875 0.5253906 3.6757813 0.54296875 3.6328125 0.54296875 3.6367188 0.5253906 3.671875 0.5253906 3.6757813 0.54296875 3.6328125 0.54296875 3.6367188 0.5253906 3.671875 0.5253906 3.6757813 0.54296875 3.6328125 0.54296875 3.6367188 0.5253906 3.671875 0.5253906 1.2695313 0.8886719 1.265625 0.8886719 1.265625 0.82910156 1.2695313 0.82910156 1.265625 0.8886719 1.265625 0.8886719 1.265625 0.82910156 1.265625 0.82910156 1.265625 0.8886719 1.265625 0.8886719 1.265625 0.82910156 1.265625 0.82910156 1.2695313 0.8886719 1.265625 0.8886719 1.265625 0.82910156 1.2695313 0.82910156 1.2695313 0.8886719 1.2695313 0.8886719 1.2695313 0.82910156 1.2695313 0.82910156 1.2695313 0.8886719 1.2695313 0.8886719 1.2695313 0.82910156 1.2695313 0.82910156 1.2734375 0.8886719 1.2695313 0.8886719 1.2695313 0.82910156 1.2734375 0.82910156 4.8828125 0.5498047 4.9921875 0.5498047 4.9921875 0.6064453 4.8828125 0.6064453 4.5703125 0.3955078 5.0234375 0.3955078 5.0234375 0.5419922 4.5703125 0.5419922 0.90234375 0.79589844 1.1328125 0.79589844 1.1328125 0.9824219 0.90234375 0.9824219 0.90234375 0.79589844 1.1328125 0.79589844 1.1328125 0.9824219 0.90234375 0.9824219 3.2109375 0.7783203 3.2109375 0.6894531 3.0039063 0.6894531 3.0039063 0.7783203 0.90234375 0.9824219 1.1328125 0.9824219 1.1328125 0.79589844 0.90234375 0.79589844 1.9804688 0.6201172 2.6015625 0.6201172 2.6015625 1.0498047 1.9804688 1.0498047 1.9921875 0.6201172 2.6171875 0.6201172 2.6171875 1.0498047 1.9921875 1.0498047 0.90234375 0.79589844 1.1328125 0.79589844 1.1328125 0.9824219 0.90234375 0.9824219 0.90234375 0.79589844 1.1328125 0.79589844 1.1328125 0.9824219 0.90234375 0.9824219 3.2148438 0.7783203 3.2148438 0.6894531 3.0039063 0.6894531 3.0039063 0.7783203 0.90234375 0.9824219 1.1328125 0.9824219 1.1328125 0.79589844 0.90234375 0.79589844 4.6523438 0.5498047 4.7148438 0.5498047 4.7148438 0.5966797 4.6523438 0.5966797 4.6328125 0.6113281 4.7695313 0.6113281 4.7695313 0.98828125 4.6328125 0.98828125 4.5703125 0.3955078 5.0234375 0.3955078 5.0234375 0.5419922 4.5703125 0.5419922 0.14257813 0.049804688 0.14257813 0.23339844 0.0029296875 0.049804688 0.0029296875 0.3701172 0.14257813 0.049804688 0.14257813 0.23339844 1.4765625 0.07128906 1.4765625 0.061523438 1.4667969 0.061523438 1.4667969 0.051757813 1.4667969 0.051757813 1.4765625 0.061523438 1.4667969 0.061523438 1.4765625 0.07128906 2.9707031 2.2480469 3.234375 2.2480469 3.234375 1.8349609 2.9707031 1.8349609 3.0771484 2.5595703 3.1132813 2.5595703 3.1132813 2.569336 3.0771484 2.569336 3.1123047 2.5771484 3.0673828 2.5771484 3.0673828 2.586914 3.1123047 2.586914 2.9707031 2.165039 2.9707031 1.8925781 3.234375 1.8925781 3.234375 2.165039 2.9707031 2.2480469 2.9707031 1.8349609 3.234375 1.8349609 3.234375 2.2480469 0.9941406 0.9042969 0.9941406 0.75390625 0.80371094 0.75390625 0.80371094 0.9042969 0.9941406 1.2705078 0.9941406 0.71484375 0.80371094 0.71484375 0.80371094 1.2705078 0.8144531 0.87890625 0.8144531 0.81933594 0.8232422 0.81933594 0.8232422 0.87890625 2.3867188 0.9550781 2.3867188 0.3515625 1.9638672 0.3515625 1.9638672 0.9550781 3.0771484 2.5595703 3.0771484 2.569336 3.1132813 2.569336 3.1132813 2.5595703 0.19140625 0.24511719 0.62109375 0.24511719 0.62109375 0.33203125 0.19140625 0.33203125 0.19140625 0.24511719 0.62109375 0.24511719 0.62109375 0.33203125 0.19140625 0.33203125 2.3867188 0.3515625 2.3867188 0.9550781 1.9638672 0.9550781 1.9638672 0.3515625 0.6425781 -2.1376953 0.18554688 -2.1376953 0.18554688 -1.5732422 0.6425781 -1.5732422 0.18554688 -2.1376953 0.6425781 -2.1376953 0.6425781 -1.5732422 0.18554688 -1.5732422 0.8144531 0.87890625 0.8144531 0.81933594 0.8232422 0.81933594 0.8232422 0.87890625 0.9941406 0.7158203 0.9941406 1.2705078 0.80371094 1.2705078 0.80371094 0.71484375 0.9941406 0.75390625 0.9941406 0.9042969 0.80371094 0.9042969 0.80371094 0.75390625 1.1660156 0.57421875 1.1660156 0.6533203 1.1054688 0.6533203 1.1054688 0.57421875 1.4570313 0.051757813 1.4570313 0.061523438 1.4667969 0.061523438 1.4667969 0.051757813 1.1660156 0.57421875 1.1054688 0.57421875 1.1054688 0.6533203 1.1660156 0.6533203 1.4570313 0.051757813 1.4667969 0.051757813 1.4667969 0.061523438 1.4570313 0.061523438 1.1660156 0.57421875 1.1660156 0.6533203 1.1054688 0.6533203 1.1054688 0.57421875 0.7939453 0.6123047 0.8984375 0.6123047 0.8984375 0.57714844 0.7939453 0.57714844 1.4570313 0.061523438 1.4570313 0.07128906 1.4667969 0.07128906 1.4667969 0.061523438 0.7939453 0.6123047 0.7939453 0.57714844 0.8984375 0.57714844 0.8984375 0.6123047 0.7939453 0.57714844 0.7939453 0.5488281 0.8984375 0.5488281 0.8984375 0.57714844 0.7939453 0.6425781 0.8984375 0.6425781 0.8984375 0.6123047 0.7939453 0.6123047 1.4570313 0.061523438 1.4667969 0.061523438 1.4667969 0.07128906 1.4570313 0.07128906 0.7939453 0.6425781 0.7939453 0.6123047 0.8984375 0.6123047 0.8984375 0.6425781 1.1660156 0.57421875 1.1054688 0.57421875 1.1054688 0.6533203 1.1660156 0.6533203 0.7939453 0.57714844 0.8984375 0.57714844 0.8984375 0.5488281 0.7939453 0.5488281 0.8222656 0.45507813 0.85058594 0.45507813 0.85058594 0.49316406 0.8222656 0.49316406 0.75390625 0.3466797 0.9814453 0.3466797 0.9814453 0.4794922 0.75390625 0.4794922 0.8222656 0.45507813 0.85058594 0.45507813 0.85058594 0.49316406 0.8222656 0.49316406 0.7470703 0.49414063 0.7871094 0.49414063 0.7871094 0.45117188 0.7470703 0.45117188 0.65234375 0.68847656 0.65234375 0.7167969 0.42578125 0.7167969 0.42578125 0.68847656 1.8095703 0.3310547 1.8095703 0.31640625 1.8291016 0.31640625 1.8291016 0.3310547 1.8095703 0.3310547 1.8095703 0.31640625 1.8291016 0.31640625 1.8291016 0.3310547 2.1611328 -0.00390625 2.2001953 -0.00390625 2.2001953 0.3544922 2.1611328 0.3544922 2.7353516 0.037109375 2.6640625 0.037109375 2.6640625 0.3408203 2.7353516 0.3408203 2.6640625 0.037109375 2.7353516 0.037109375 2.7353516 0.3408203 2.6640625 0.3408203 2.1894531 -0.00390625 2.1611328 -0.00390625 2.1611328 0.3544922 2.1894531 0.3544922 0.42578125 0.42382813 0.65234375 0.42382813 0.65234375 0.6855469 0.42578125 0.6855469 3.1123047 2.5771484 3.1123047 2.586914 3.0673828 2.586914 3.0673828 2.5771484 2.9707031 2.165039 3.234375 2.165039 3.234375 1.8925781 2.9707031 1.8925781 0.6279297 -1.2783203 0.51953125 -1.2783203 0.57421875 -1.1835938 0.30664063 1.1640625 0.3642578 1.1640625 0.3642578 1.0966797 0.4345703 0.4169922 0.4404297 0.4189453 0.4404297 0.41503906 1.4667969 0.061523438 1.4667969 0.07128906 1.4765625 0.07128906 0.4345703 0.4169922 0.43652344 0.42285156 0.4326172 0.42285156 0.9941406 0.7158203 0.80371094 0.7158203 0.80371094 1.2705078 0.50878906 -0.31152344 0.56347656 -0.32128906 0.56347656 -0.30273438 0.80371094 0.71484375 0.80371094 1.2705078 1.0087891 1.2705078 0.4345703 0.4169922 0.4404297 0.41503906 0.4404297 0.4189453 1.4667969 0.061523438 1.4765625 0.07128906 1.4667969 0.07128906 0.48828125 -0.31640625 0.42089844 -0.32226563 0.48632813 -0.3125 0.4345703 0.4169922 0.4326172 0.42285156 0.43652344 0.42285156 0.3642578 1.1640625 0.30664063 1.1640625 0.3642578 1.0966797 4.4257813 0.43164063 4.442383 0.43164063 4.442383 0.4189453 4.4257813 0.43164063 4.442383 0.43164063 4.442383 0.4189453 </float_array>
          <technique_common>
            <accessor source="#texcoords-array" count="596" stride="2">
              <param name="S" type="float" />
              <param name="T" type="float" />
            </accessor>
          </technique_common>
        </source>
        <source id="colors">
          <float_array id="colors-array" count="1788">1 1 1 1 1 1 1 1 1 1 1 1 1 1 1 1 1 1 1 1 1 1 1 1 1 1 1 1 1 1 1 1 1 1 1 1 1 1 1 1 1 1 1 1 1 1 1 1 1 1 1 1 1 1 1 1 1 1 1 1 1 1 1 1 1 1 1 1 1 1 1 1 1 1 1 1 1 1 1 1 1 1 1 1 1 1 1 1 1 1 1 1 1 1 1 1 1 1 1 1 1 1 1 1 1 1 1 1 1 1 1 1 1 1 1 1 1 1 1 1 1 1 1 1 1 1 1 1 1 1 1 1 1 1 1 1 1 1 1 1 1 1 1 1 1 1 1 1 1 1 1 1 1 1 1 1 1 1 1 1 1 1 1 1 1 1 1 1 1 1 1 1 1 1 1 1 1 1 1 1 1 1 1 1 1 1 1 1 1 1 1 1 1 1 1 1 1 1 1 1 1 1 1 1 1 1 1 1 1 1 1 1 1 1 1 1 1 1 1 1 1 1 1 1 1 1 1 1 1 1 1 1 1 1 1 1 1 1 1 1 1 1 1 1 1 1 1 1 1 1 1 1 1 1 1 1 1 1 1 1 1 1 1 1 1 1 1 1 1 1 1 1 1 1 1 1 1 1 1 1 1 1 1 1 1 1 1 1 1 1 1 1 1 1 1 1 1 1 1 1 1 1 1 1 1 1 1 1 1 1 1 1 1 1 1 1 1 1 1 1 1 1 1 1 1 1 1 1 1 1 1 1 1 1 1 1 1 1 1 1 1 1 1 1 1 1 1 1 1 1 1 1 1 1 1 1 1 1 1 1 1 1 1 1 1 1 1 1 1 1 1 1 1 1 1 1 1 1 1 1 1 1 1 1 1 1 1 1 1 1 1 1 1 1 1 1 1 1 1 1 1 1 1 1 1 1 1 1 1 1 1 1 1 1 1 1 1 1 1 1 1 1 1 1 1 1 1 1 1 1 1 1 1 1 1 1 1 1 1 1 1 1 1 1 1 1 1 1 1 1 1 1 1 1 1 1 1 1 1 1 1 1 1 1 1 1 1 1 1 1 1 1 1 1 1 1 1 1 1 1 1 1 1 1 1 1 1 1 1 1 1 1 1 1 1 1 1 1 1 1 1 1 1 1 1 1 1 1 1 1 1 1 1 1 1 1 1 1 1 1 1 1 1 1 1 1 1 1 1 1 1 1 1 1 1 1 1 1 1 1 1 1 1 1 1 1 1 1 1 1 1 1 1 1 1 1 1 1 1 1 1 1 1 1 1 1 1 1 1 1 1 1 1 1 1 1 1 1 1 1 1 1 1 1 1 1 1 1 1 1 1 1 1 1 1 1 1 1 1 1 1 1 1 1 1 1 1 1 1 1 1 1 1 1 1 1 1 1 1 1 1 1 1 1 1 1 1 1 1 1 1 1 1 1 1 1 1 1 1 1 1 1 1 1 1 1 1 1 1 1 1 1 1 1 1 1 1 1 1 1 1 1 1 1 1 1 1 1 1 1 1 1 1 1 1 1 1 1 1 1 1 1 1 1 1 1 1 1 1 1 1 1 1 1 1 1 1 1 1 1 1 1 1 1 1 1 1 1 1 1 1 1 1 1 1 1 1 1 1 1 1 1 1 1 1 1 1 1 1 1 1 1 1 1 1 1 1 1 1 1 1 1 1 1 1 1 1 1 1 1 1 1 1 1 1 1 1 1 1 1 1 1 1 1 1 1 1 1 1 1 1 1 1 1 1 1 1 1 1 1 1 1 1 1 1 1 1 1 1 1 1 1 1 1 1 1 1 1 1 1 1 1 1 1 1 1 1 1 1 1 1 1 1 1 1 1 1 1 1 1 1 1 1 1 1 1 1 1 1 1 1 1 1 1 1 1 1 1 1 1 1 1 1 1 1 1 1 1 1 1 1 1 1 1 1 1 1 1 1 1 1 1 1 1 1 1 1 1 1 1 1 1 1 1 1 1 1 1 1 1 1 1 1 1 1 1 1 1 1 1 1 1 1 1 1 1 1 1 1 1 1 1 1 1 1 1 1 1 1 1 1 1 1 1 1 1 1 1 1 1 1 1 1 1 1 1 1 1 1 1 1 1 1 1 1 1 1 1 1 1 1 1 1 1 1 1 1 1 1 1 1 1 1 1 1 1 1 1 1 1 1 1 1 1 1 1 1 1 1 1 1 1 1 1 1 1 1 1 1 1 1 1 1 1 1 1 1 1 1 1 1 1 1 1 1 1 1 1 1 1 1 1 1 1 1 1 1 1 1 1 1 1 1 1 1 1 1 1 1 1 1 1 1 1 1 1 1 1 1 1 1 1 1 1 1 1 1 1 1 1 1 1 1 1 1 1 1 1 1 1 1 1 1 1 1 1 1 1 1 1 1 1 1 1 1 1 1 1 1 1 1 1 1 1 1 1 1 1 1 1 1 1 1 1 1 1 1 1 1 1 1 1 1 1 1 1 1 1 1 1 1 1 1 1 1 1 1 1 1 1 1 1 1 1 1 1 1 1 1 1 1 1 1 1 1 1 1 1 1 1 1 1 1 1 1 1 1 1 1 1 1 1 1 1 1 1 1 1 1 1 1 1 1 1 1 1 1 1 1 1 1 1 1 1 1 1 1 1 1 1 1 1 1 1 1 1 1 1 1 1 1 1 1 1 1 1 1 1 1 1 1 1 1 1 1 1 1 1 1 1 1 1 1 1 1 1 1 1 1 1 1 1 1 1 1 1 1 1 1 1 1 1 1 1 1 1 1 1 1 1 1 1 1 1 1 1 1 1 1 1 1 1 1 1 1 1 1 1 1 1 1 1 1 1 1 1 1 1 1 1 1 1 1 1 1 1 1 1 1 1 1 1 1 1 1 1 1 1 1 1 1 1 1 1 1 1 1 1 1 1 1 1 1 1 1 1 1 1 1 1 1 1 1 1 1 1 1 1 1 1 1 1 1 1 1 1 1 1 1 1 1 1 1 1 1 1 1 1 1 1 1 1 1 1 1 1 1 1 1 1 1 1 1 1 1 1 1 1 1 1 1 1 1 1 1 1 1 1 1 1 1 1 1 1 1 1 1 1 1 1 1 1 1 1 1 1 1 1 1 1 1 1 1 1 1 1 1 1 1 1 1 1 1 1 1 1 1 1 1 1 1 1 1 1 1 1 1 1 1 1 1 1 1 1 1 1 1 1 1 1 1 1 1 1 1 1 1 1 1 1 1 1 1 1 1 1 1 1 1 1 1 1 1 1 1 1 1 1 1 1 1 1 1 1 1 1 1 1 1 1 1 1 1 1 1 1 1 1 1 1 1 1 1 1 1 1 1 1 1 1 1 1 1 1 1 1 1 1 1 1 1 1 1 1 1 1 1 1 1 1 1 1 1 1 1 1 1 1 1 1 1 1 1 1 1 1 1 1 1 1 1 1 1 1 1 1 1 1 1 1 1 1 1 1 1 1 1 1 1 1 1 1 1 1 1 1 1 1 1 1 1 1 1 1 1 1 1 1 1 1 1 1 1 1 1 1 1 1 1 1 1 1 1 1 1 1 1 1 1 1 1 1 1 1 1 1 1 1 1 1 1 1 1 1 1 1 1 1 1 1 1 1 1 1 1 1 1 1 1 1 1 1 1 1 1 1 1 1 1 1 1 1 1 1 1 1 1 1 1 1 1 1 1 1 1 1 1 1 1 1 1 1 1 1 1 1 1 1 1 1 1 1 1 1 1 1 1 1 1 1 1 1 1 1 1 1 1 1 1 1 1 1 1 1 1 1 1 1 1 1 1 1 1 1 1 1 1 1 1 1 1 1 1 1 1 1 1 1 1 1 1 1 1 1 1 1 1 1 1 1 1 1 1 1 1 1 1 1 1 1 1 1 1 1 1 1 1 1 1 1 1 1 1 1 1 1 1 1 1 1 1 1 1 1 1 1 1 1 1 1 1 1 1 1 1 1 1 1 1 1 1 1 1 1 1 1 1 1 1 1 1 1 1 1 1 1 1 1 1 1 1 1 1 1 1 1 1 1 </float_array>
          <technique_common>
            <accessor source="#colors-array" count="596" stride="3">
              <param name="R" type="float" />
              <param name="G" type="float" />
              <param name="B" type="float" />
            </accessor>
          </technique_common>
        </source>
        <source id="normals">
          <float_array id="normals-array" count="1788">0 0 1 0 0 1 0 0 1 0 0 1 0 0 1 0 0 1 0 0 1 0 0 1 0 0 1 0 0 1 0 0 1 0 0 1 0 0 1 0 0 1 0 0 1 0 0 1 0 0 1 0 0 1 0 0 1 0 0 1 0 0 1 0 0 1 0 0 1 0 0 1 0 1 0 0 1 0 0 1 0 0 1 0 0 1 0 0 1 0 0 1 0 0 1 0 0 1 0 0 1 0 0 1 0 0 1 0 0 1 0 0 1 0 0 1 0 0 1 0 0 1 0 0 1 0 0 1 0 0 1 0 0 1 0 0 1 0 0 1 0 0 1 0 0 1 0 0.5139209 0.85783756 0 0.5139209 0.85783756 0 0 1 0 0 1 0 -0.5139209 0.85783756 0 -0.5139209 0.85783756 0 0.58805555 0.80882055 0 0.58805555 0.80882055 0 0 1 0 0 1 0 -0.58805555 0.80882055 0 -0.58805555 0.80882055 0 -1 0 0 -1 0 0 -1 0 0 -1 0 0 1 0 0 1 0 0 1 0 0 1 0 0 0.3941548 0.9190441 0 0.3941548 0.9190441 0 0.3941548 0.9190441 0 0.3941548 0.9190441 0 0 0 1 0 0 1 0 0 1 0 0 1 -1 0 0 -1 0 0 -1 0 0 -1 0 0 1 0 0 1 0 0 1 0 0 1 0 0 0 0 1 0 0 1 0 0 1 0 0 1 0 0 1 0 0 1 0 0 1 0 0 1 -1 0 0 -1 0 0 -1 0 0 -1 0 0 1 0 0 1 0 0 1 0 0 1 0 0 0 0 1 0 0 1 0 0 1 0 0 1 0 0 1 0 0 1 0 0 1 0 0 1 1 0 0 1 0 0 1 0 0 1 0 0 -1 0 0 -1 0 0 -1 0 0 -1 0 0 -0.41247696 0.91096807 0 -0.41247696 0.91096807 0 -0.41247696 0.91096807 0 -0.41247696 0.91096807 0 0 0 1 0 0 1 0 0 1 0 0 1 0 0 1 0 0 1 0 0 1 0 0 1 0 0 1 0 0 1 0 0 1 0 0 1 0 0 1 0 0 1 0 0 1 0 0 1 0 0 1 0 0 1 0 0 1 0 0 1 -0.9702572 0.24207625 0 -0.9702572 0.24207625 0 -0.9702572 0.24207625 0 -0.9702572 0.24207625 0 -0.9702572 0.24207625 0 -0.9702572 0.24207625 0 -0.9702572 0.24207625 0 -0.9702572 0.24207625 0 0 1 0 0 1 0 0 1 0 0 1 0 0 0.24207625 0.9702572 0 0.24207625 0.9702572 0 0.24207625 0.9702572 0 0.24207625 0.9702572 0 0 1 0 0 1 0 0 1 0 0 1 0 0 1 0 0 1 0 0 1 0 0 1 0 0 1 0 0 1 0 0 1 0 0 1 0.9702572 0.24207625 0 0.9702572 0.24207625 0 0.9702572 0.24207625 0 0.9702572 0.24207625 0 0.26774466 0.9634899 0 0.26774466 0.9634899 0 0.26774466 0.9634899 0 0.26774466 0.9634899 0 0 0 1 0 0 1 0 0 1 0 0 1 0 0 1 0 0 1 0 0 1 0 0 1 -0.26774466 0.9634899 0 -0.26774466 0.9634899 0 -0.26774466 0.9634899 0 -0.26774466 0.9634899 0 -0.95119184 -0.30860022 0 -0.95119184 -0.30860022 0 -0.95119184 -0.30860022 0 -0.95119184 -0.30860022 0 -0.95119184 0.30860022 0 -0.95119184 0.30860022 0 -0.95119184 0.30860022 0 -0.95119184 0.30860022 0 0 1 0 0 1 0 0 1 0 0 1 0 0.58805555 0.80882055 0 0.58805555 0.80882055 0 0.58805555 0.80882055 0 0.58805555 0.80882055 0 0.95119184 0.30860022 0 0.95119184 0.30860022 0 0.95119184 0.30860022 0 0.95119184 0.30860022 0 0.95119184 -0.30860022 0 0.95119184 -0.30860022 0 0.95119184 -0.30860022 0 0.95119184 -0.30860022 0 0 0 1 0 0 1 0 0 1 0 0 1 -0.58805555 0.80882055 0 -0.58805555 0.80882055 0 -0.58805555 0.80882055 0 -0.58805555 0.80882055 0 0.9702572 0.24207625 0 0.9702572 0.24207625 0 0.9702572 0.24207625 0 0.9702572 0.24207625 0 0 0 1 0 0 1 0 0 1 0 0 1 0 0 1 0 0 1 0 0 1 0 0 1 0 0 1 0 0 1 0 0 1 0 0 1 0 0 1 0 0 1 0 0 1 0 0 1 0 0 1 0 0 1 0 0 1 0 0 1 0 0 1 0 0 1 0 0 1 0 0 1 0 0 1 0 0 1 0 0 1 0 0 1 0 0 1 0 0 1 0 0 1 0 0 1 0 0 1 0 0 1 0 0 1 0 0 1 0 0 1 0 0 1 0 0 1 0 0 1 0.95119184 0.30860022 0 0.95119184 0.30860022 0 0.95119184 0.30860022 0 0.95119184 0.30860022 0 0.8129405 -0.5823468 0 0.8129405 -0.5823468 0 0.8129405 -0.5823468 0 0.8129405 -0.5823468 0 -0.88116026 -0.47281772 0 -0.88116026 -0.47281772 0 -0.88116026 -0.47281772 0 -0.88116026 -0.47281772 0 -0.95119184 0.30860022 0 -0.95119184 0.30860022 0 -0.95119184 0.30860022 0 -0.95119184 0.30860022 0 -0.58805555 0.80882055 0 -0.58805555 0.80882055 0 -0.58805555 0.80882055 0 -0.58805555 0.80882055 0 0 1 0 0 1 0 0 1 0 0 1 0 0.58805555 0.80882055 0 0.58805555 0.80882055 0 0.58805555 0.80882055 0 0.58805555 0.80882055 0 0 1 0 0 1 0 0 1 0 0 1 0 0 0.13676962 0.9906029 0 0.13676962 0.9906029 0 0.13676962 0.9906029 0 0.13676962 0.9906029 0.9906029 0.13676962 0 0.9906029 0.13676962 0 0.9906029 0.13676962 0 0.9906029 0.13676962 0 -0.9906029 0.13676962 0 -0.9906029 0.13676962 0 -0.9906029 0.13676962 0 -0.9906029 0.13676962 0 0 1 0 0 1 0 0 1 0 0 1 0 0 0.13676962 0.9906029 0 0.13676962 0.9906029 0 0.13676962 0.9906029 0 0.13676962 0.9906029 0 0.36329442 0.93167436 0 0.36329442 0.93167436 0 0.36329442 0.93167436 0 0.36329442 0.93167436 0 0.36329442 0.93167436 0 0.36329442 0.93167436 0 0.36329442 0.93167436 0 0.36329442 0.93167436 0.9906029 0.13676962 0 0.9906029 0.13676962 0 0.9906029 0.13676962 0 0.9906029 0.13676962 0 -0.9906029 0.13676962 0 -0.9906029 0.13676962 0 -0.9906029 0.13676962 0 -0.9906029 0.13676962 0 0 1 0 0 1 0 0 1 0 0 1 0 0 0.13676962 0.9906029 0 0.13676962 0.9906029 0 0.13676962 0.9906029 0 0.13676962 0.9906029 0 0.24207625 0.9702572 0 0.24207625 0.9702572 0 0.24207625 0.9702572 0 0.24207625 0.9702572 0 0 1 0 0 1 0 0 1 0 0 1 0 0.13676962 0.9906029 0 0.13676962 0.9906029 0 0.13676962 0.9906029 0 0.13676962 0.9906029 0 0 1 0 0 1 0 0 1 0 0 1 0 0 1 0 0 1 0 1 0 0 1 0 0 1 0 0 1 0 0 1 0 0 1 0 0 1 0 0 1 0 0 0 1 0 0 1 0 0 1 0 0 1 0 1 0 0 1 0 0 1 0 0 1 0 0 1 0 0 1 0 0 1 0 0 1 0 1 0 0 1 0 0 1 0 0 1 0 0 0 0 1 0 0 1 0 0 1 0 0 1 0 0 1 0 0 1 0 0 1 0 0 1 -1 0 0 -1 0 0 -1 0 0 -1 0 0 0 1 0 0 1 0 0 1 0 0 1 0 0 0 1 0 0 1 0 0 1 0 0 1 0 1 0 0 1 0 0 1 0 0 1 0 1 0 0 1 0 0 1 0 0 1 0 0 -1 0 0 -1 0 0 -1 0 0 -1 0 0 0 0 1 0 0 1 0 0 1 0 0 1 -1 0 0 -1 0 0 -1 0 0 -1 0 0 1 0 0 1 0 0 1 0 0 1 0 0 0 1 0 0 1 0 0 1 0 0 1 0 1 0 0 1 0 0 1 0 0 1 0 0 0 0 1 0 0 1 0 0 1 0 0 1 -0.73487836 0 0.67819893 -0.73487836 0 0.67819893 -0.73487836 0 0.67819893 -0.73487836 0 0.67819893 0 1 0 0 1 0 0 1 0 0 1 0 0.73487836 0 0.67819893 0.73487836 0 0.67819893 0.73487836 0 0.67819893 0.73487836 0 0.67819893 0 1 0 0 1 0 0 1 0 0 1 0 0 0 1 0 0 1 0 0 1 0 0 1 -0.73487836 0 0.67819893 -0.73487836 0 0.67819893 -0.73487836 0 0.67819893 -0.73487836 0 0.67819893 0 1 0 0 1 0 0 1 0 0 1 0 0.73487836 0 0.67819893 0.73487836 0 0.67819893 0.73487836 0 0.67819893 0.73487836 0 0.67819893 1 0 0 1 0 0 1 0 0 1 0 0 0 0 1 0 0 1 0 0 1 0 0 1 0 1 0 0 1 0 0 1 0 0 1 0 0 0 1 0 0 1 0 0 1 0 0 1 0 0 1 0 0 1 0 0 1 0 0 1 -1 0 0 -1 0 0 -1 0 0 -1 0 0 1 0 0 1 0 0 1 0 0 1 0 0 0 1 0 0 1 0 0 1 0 0 1 0 -1 0 0 -1 0 0 -1 0 0 -1 0 0 0 0 1 0 0 1 0 0 1 0 0 1 0 1 0 0 1 0 0 1 0 0 1 0 -1 0 0 -1 0 0 -1 0 0 -1 0 0 1 0 0 1 0 0 1 0 0 1 0 0 0 0 1 0 0 1 0 0 1 0 0 1 -1 0 0 -1 0 0 -1 0 0 -1 0 0 1 0 0 1 0 0 1 0 0 1 0 0 0 0 1 0 0 1 0 0 1 0 0 1 0 0.81201535 0.58363605 0 0.81201535 0.58363605 0 0.81201535 0.58363605 0 0.81201535 0.58363605 0 1 0 0 1 0 0 1 0 0 1 0 -1 0 0 -1 0 0 -1 0 0 -1 0 0 0 0 1 0 0 1 0 0 1 0 0 1 0 0 1 0 0 1 1 0 0 1 0 0 1 0 0 0 1 0 0 1 0 0 1 0 -0.9883265 0 -0.15235072 -0.9883265 0 -0.15235072 -0.9883265 0 -0.15235072 -1 0 0 -1 0 0 -1 0 0 0 0 1 0 0 1 0 0 1 1 0 0 1 0 0 1 0 0 -1 0 0 -1 0 0 -1 0 0 0 1 0 0 1 0 0 1 0 0 0 1 0 0 1 0 0 1 0.9883265 0 -0.15235072 0.9883265 0 -0.15235072 0.9883265 0 -0.15235072 0 0 1 0 0 1 0 0 1 -1 0 0 -1 0 0 -1 0 0 1 0 0 1 0 0 1 0 0 </float_array>
          <technique_common>
            <accessor source="#normals-array" count="596" stride="3">
              <param name="X" type="float" />
              <param name="Y" type="float" />
              <param name="Z" type="float" />
            </accessor>
          </technique_common>
        </source>
        <vertices id="vertices">
          <input semantic="POSITION" source="#positions" />
          <input semantic="TEXCOORD" source="#texcoords" />
          <input semantic="COLOR" source="#colors" />
          <input semantic="NORMAL" source="#normals" />
        </vertices>
        <polylist material="material5" count="2">
          <input semantic="VERTEX" source="#vertices" offset="0" />
          <vcount>4 4 </vcount>
          <p>0 1 2 3 4 5 6 7 </p>
        </polylist>
        <polylist material="material4" count="4">
          <input semantic="VERTEX" source="#vertices" offset="0" />
          <vcount>4 4 4 4 </vcount>
          <p>8 9 10 11 12 13 14 15 16 17 18 19 20 21 22 23 </p>
        </polylist>
        <polylist material="material3" count="8">
          <input semantic="VERTEX" source="#vertices" offset="0" />
          <vcount>4 4 4 4 4 3 3 3 </vcount>
          <p>24 25 27 26 26 27 29 28 28 29 31 30 32 33 34 35 36 37 38 39 40 41 42 43 44 45 46 47 48 </p>
        </polylist>
        <polylist material="material1" count="20">
          <input semantic="VERTEX" source="#vertices" offset="0" />
          <vcount>4 4 4 4 4 4 4 4 4 4 4 4 4 4 4 4 4 4 4 4 </vcount>
          <p>49 50 52 51 51 52 54 53 55 56 58 57 57 58 60 59 61 62 63 64 65 66 67 68 69 70 71 72 73 74 75 76 77 78 79 80 81 82 83 84 85 86 87 88 89 90 91 92 93 94 95 96 97 98 99 100 101 102 103 104 105 106 107 108 109 110 111 112 113 114 115 116 117 118 119 120 121 122 123 124 </p>
        </polylist>
        <polylist material="material2" count="60">
          <input semantic="VERTEX" source="#vertices" offset="0" />
          <vcount>3 3 3 3 3 3 4 4 4 4 4 4 4 4 4 4 4 4 4 4 4 4 4 4 4 4 4 4 4 4 4 4 4 4 4 4 4 4 4 4 4 4 4 4 4 4 4 4 4 4 4 4 4 4 4 4 4 4 4 4 </vcount>
          <p>125 126 127 126 128 127 129 130 131 130 132 131 133 134 135 134 136 135 137 138 139 140 141 142 143 144 145 146 147 148 149 150 151 152 153 154 155 156 157 158 159 160 161 162 163 164 165 166 167 168 169 170 171 172 173 174 175 176 177 178 179 180 181 182 183 184 185 186 187 188 189 190 191 192 193 194 195 196 197 198 199 200 201 202 203 204 205 206 207 208 209 210 211 212 213 214 215 216 217 218 219 220 221 222 223 224 225 226 227 228 229 230 231 232 233 234 235 236 237 238 239 240 241 242 243 244 245 246 247 248 249 250 251 252 253 254 255 256 257 258 259 260 261 262 263 264 265 266 267 268 269 270 271 272 273 274 275 276 277 278 279 280 281 282 283 284 285 286 287 288 289 290 291 292 293 294 295 296 297 298 299 300 301 302 303 304 305 306 307 308 309 310 311 312 313 314 315 316 317 318 319 320 321 322 323 324 325 326 327 328 329 330 331 332 333 334 335 336 337 338 339 340 341 342 343 344 345 346 347 348 349 350 351 352 </p>
        </polylist>
        <polylist material="material0" count="67">
          <input semantic="VERTEX" source="#vertices" offset="0" />
          <vcount>4 4 3 3 3 3 4 4 4 4 4 4 4 4 4 4 4 4 4 4 4 4 4 4 4 4 4 4 4 4 4 4 4 4 4 4 4 4 4 4 4 4 4 4 4 4 4 4 4 4 4 4 3 3 3 3 3 3 3 3 3 3 3 3 3 3 3 </vcount>
          <p>353 354 356 355 355 356 358 357 359 360 361 360 362 361 363 364 365 364 366 365 367 368 369 370 371 372 373 374 375 376 377 378 379 380 381 382 383 384 385 386 387 388 389 390 391 392 393 394 395 396 397 398 399 400 401 402 403 404 405 406 407 408 409 410 411 412 413 414 415 416 417 418 419 420 421 422 423 424 425 426 427 428 429 430 431 432 433 434 435 436 437 438 439 440 441 442 443 444 445 446 447 448 449 450 451 452 453 454 455 456 457 458 459 460 461 462 463 464 465 466 467 468 469 470 471 472 473 474 475 476 477 478 479 480 481 482 483 484 485 486 487 488 489 490 491 492 493 494 495 496 497 498 499 500 501 502 503 504 505 506 507 508 509 510 511 512 513 514 515 516 517 518 519 520 521 522 523 524 525 526 527 528 529 530 531 532 533 534 535 536 537 538 539 540 541 542 543 544 545 546 547 548 549 550 551 552 553 554 555 556 557 558 559 560 561 562 563 564 565 566 567 568 569 570 571 572 573 574 575 576 577 578 579 580 581 582 583 584 585 586 587 588 589 590 591 592 593 594 595 </p>
        </polylist>
      </mesh>
    </geometry>
  </library_geometries>
  <library_visual_scenes>
    <visual_scene id="scene0" name="c12_gym_01">
      <node id="node" name="c12_gym_01" type="NODE">
        <instance_geometry url="#geometry">
          <bind_material>
            <technique_common>
              <instance_material symbol="material0" target="#material0">
                <bind_vertex_input semantic="tc" input_semantic="TEXCOORD" />
              </instance_material>
              <instance_material symbol="material1" target="#material1">
                <bind_vertex_input semantic="tc" input_semantic="TEXCOORD" />
              </instance_material>
              <instance_material symbol="material2" target="#material2">
                <bind_vertex_input semantic="tc" input_semantic="TEXCOORD" />
              </instance_material>
              <instance_material symbol="material3" target="#material3">
                <bind_vertex_input semantic="tc" input_semantic="TEXCOORD" />
              </instance_material>
              <instance_material symbol="material4" target="#material4">
                <bind_vertex_input semantic="tc" input_semantic="TEXCOORD" />
              </instance_material>
              <instance_material symbol="material5" target="#material5">
                <bind_vertex_input semantic="tc" input_semantic="TEXCOORD" />
              </instance_material>
            </technique_common>
          </bind_material>
        </instance_geometry>
      </node>
    </visual_scene>
  </library_visual_scenes>
  <scene>
    <instance_visual_scene url="#scene0" />
  </scene>
</COLLADA>