<?xml version='1.0' encoding='utf-8'?>
<COLLADA xmlns="http://www.collada.org/2005/11/COLLADASchema" version="1.4.1">
  <asset>
    <created>2026-07-27T16:58:19Z</created>
    <modified>2026-07-27T16:58:19Z</modified>
  </asset>
  <library_images>
    <image id="image-pc_kabe02">
      <init_from>pc_kabe02.png</init_from>
    </image>
    <image id="image-pc_win1">
      <init_from>pc_win1.png</init_from>
    </image>
    <image id="image-h_kage">
      <init_from>h_kage.png</init_from>
    </image>
  </library_images>
  <library_materials>
    <material id="material0" name="h_kage">
      <instance_effect url="#effect0" />
    </material>
    <material id="material1" name="pc_kabe02">
      <instance_effect url="#effect1" />
    </material>
    <material id="material2" name="pc_win1">
      <instance_effect url="#effect2" />
    </material>
  </library_materials>
  <library_effects>
    <effect id="effect0" name="h_kage">
      <profile_COMMON>
        <newparam sid="Image-surface">
          <surface type="2D">
            <init_from>image-h_kage</init_from>
            <format>A8R8G8B8</format>
          </surface>
        </newparam>
        <newparam sid="Image-sampler">
          <sampler2D>
            <source>Image-surface</source>
            <wrap_s>WRAP</wrap_s>
            <wrap_t>WRAP</wrap_t>
            <minfilter>NEAREST</minfilter>
            <magfilter>NEAREST</magfilter>
            <mipfilter>NEAREST</mipfilter>
          </sampler2D>
        </newparam>
        <technique sid="common">
          <phong>
            <emission>
              <color>0 0 0 1</color>
            </emission>
            <ambient>
              <color>1 1 1 1</color>
            </ambient>
            <diffuse>
              <texture texture="Image-sampler" texcoord="tc" />
            </diffuse>
            <specular>
              <color>0 0 0 1</color>
            </specular>
            <transparent>
              <texture texture="Image-sampler" texcoord="tc" />
            </transparent>
          </phong>
        </technique>
      </profile_COMMON>
    </effect>
    <effect id="effect1" name="pc_kabe02">
      <profile_COMMON>
        <newparam sid="Image-surface">
          <surface type="2D">
            <init_from>image-pc_kabe02</init_from>
            <format>A8R8G8B8</format>
          </surface>
        </newparam>
        <newparam sid="Image-sampler">
          <sampler2D>
            <source>Image-surface</source>
            <wrap_s>CLAMP</wrap_s>
            <wrap_t>CLAMP</wrap_t>
            <minfilter>NEAREST</minfilter>
            <magfilter>NEAREST</magfilter>
            <mipfilter>NEAREST</mipfilter>
          </sampler2D>
        </newparam>
        <technique sid="common">
          <phong>
            <emission>
              <color>0 0 0 1</color>
            </emission>
            <ambient>
              <color>0.9032258 0.9032258 0.9032258 1</color>
            </ambient>
            <diffuse>
              <texture texture="Image-sampler" texcoord="tc" />
            </diffuse>
            <specular>
              <color>0 0 0 1</color>
            </specular>
          </phong>
        </technique>
      </profile_COMMON>
    </effect>
    <effect id="effect2" name="pc_win1">
      <profile_COMMON>
        <newparam sid="Image-surface">
          <surface type="2D">
            <init_from>image-pc_win1</init_from>
            <format>A8R8G8B8</format>
          </surface>
        </newparam>
        <newparam sid="Image-sampler">
          <sampler2D>
            <source>Image-surface</source>
            <wrap_s>WRAP</wrap_s>
            <wrap_t>CLAMP</wrap_t>
            <minfilter>NEAREST</minfilter>
            <magfilter>NEAREST</magfilter>
            <mipfilter>NEAREST</mipfilter>
          </sampler2D>
        </newparam>
        <technique sid="common">
          <phong>
            <emission>
              <color>1 1 1 1</color>
            </emission>
            <ambient>
              <color>1 1 1 1</color>
            </ambient>
            <diffuse>
              <texture texture="Image-sampler" texcoord="tc" />
            </diffuse>
            <specular>
              <color>0 0 0 1</color>
            </specular>
            <transparent>
              <texture texture="Image-sampler" texcoord="tc" />
            </transparent>
          </phong>
        </technique>
      </profile_COMMON>
    </effect>
  </library_effects>
  <library_geometries>
    <geometry id="geometry" name="pc_01">
      <mesh>
        <source id="positions">
          <float_array id="positions-array" count="1158">46.65625 2.3203125 -46.347656 -44.085938 2.3203125 -46.347656 46.65625 2.3203125 -38.347656 -43.90625 2.3203125 -38.125 46.65625 2.3203125 5.703125 -43.90625 2.3203125 5.703125 25.8125 2.3203125 37.914063 25.8125 2.3203125 29.3125 -26.09375 2.3203125 29.3125 -26.09375 2.3203125 37.914063 -43.90625 2.3203125 5.703125 -26.09375 2.3203125 29.3125 25.8125 2.3203125 29.3125 46.65625 2.3203125 5.703125 46.65625 2.3203125 5.703125 58.492188 2.3203125 5.703125 58.492188 2.3203125 -38.347656 46.65625 2.3203125 -38.347656 -57.671875 2.3203125 5.703125 -43.90625 2.3203125 5.703125 -43.90625 2.3203125 -38.125 -57.671875 2.3203125 -38.171875 -26.09375 2.3203125 37.914063 -26.09375 2.3203125 29.3125 -39.90625 2.3203125 29.3125 -26.09375 2.3203125 29.3125 -43.90625 2.3203125 15.703125 -39.90625 2.3203125 29.3125 -43.90625 2.3203125 5.703125 -43.90625 2.3203125 15.703125 -26.09375 2.3203125 29.3125 42.65625 2.3203125 29.3125 25.8125 2.3203125 29.3125 25.8125 2.3203125 37.914063 46.65625 2.3203125 15.703125 25.8125 2.3203125 29.3125 42.65625 2.3203125 29.3125 46.65625 2.3203125 5.703125 25.8125 2.3203125 29.3125 46.65625 2.3203125 15.703125 -57.671875 2.3203125 -38.171875 -43.90625 2.3203125 -38.125 -44.085938 2.3203125 -46.347656 46.65625 2.3203125 5.703125 46.65625 2.3203125 15.703125 58.492188 2.3203125 5.703125 46.65625 2.3203125 -38.347656 58.492188 2.3203125 -38.347656 46.65625 2.3203125 -46.347656 -43.90625 2.3203125 15.703125 -43.90625 2.3203125 5.703125 -57.671875 2.3203125 5.703125 -9.78125 44.92578 21.300781 9.7578125 44.92578 21.300781 9.7578125 64.95703 21.300781 -9.78125 64.95703 21.300781 52 29.019531 -4 40 29.019531 4 40 3.25 4 52 3.25 -4 52 29.019531 -4 52 3.25 -4 52 3.25 -20 52 29.019531 -20 40 3.2265625 12 40 3.25 4 40 29.019531 4 40 29.019531 12 -15.496094 64 19.378906 -15.496094 44.007813 19.378906 15.941406 44.007813 19.378906 15.941406 64 19.378906 -15.496094 44.007813 19.378906 -15.496094 64 19.378906 -32 64 19.378906 -32 44.007813 19.378906 15.941406 44.007813 19.378906 32 44.007813 19.378906 32 64 19.378906 15.941406 64 19.378906 -40 44.007813 -36 -40 44.007813 12 -40 64 12 -40 64 -36 -40 44.007813 12 -32 44.007813 19.378906 -32 64 19.378906 -40 64 12 40 44.007813 12 40 44.007813 -36 40 64 -36 40 64 12 32 44.007813 19.378906 40 44.007813 12 40 64 12 32 64 19.378906 -32 3.2265625 19.378906 -13.90625 3.25 19.375 -13.90625 28.90625 19.375 -32 28.90625 19.378906 -40 3.2382813 12 -32 3.2265625 19.378906 -32 28.90625 19.378906 -40 28.90625 12 32 3.25 19.378906 32 29.019531 19.378906 14.261719 28.875 19.375 14.261719 3.25 19.375 40 29.019531 -28 40 3.25 -28 40 3.25 -36 40 29.019531 -36 32 3.25 19.378906 40 3.2265625 12 40 29.019531 12 32 29.019531 19.378906 -40 28.90625 4 -52 28.90625 -4 -52 3.25 -4 -40 3.25 4 -52 28.90625 -20 -52 3.25 -20 -52 3.25 -4 -52 28.90625 -4 -40 28.90625 4 -40 3.25 4 -40 3.2382813 12 -40 28.90625 12 -40 28.90625 -36 -40 3.25 -36 -40 3.25 -28 -40 28.90625 -28 17.503906 28.875 24.792969 22.589844 28.90625 21.808594 15.183594 35.234375 24.792969 19.351563 38.03125 21.808594 8.839844 40.308594 24.792969 11.5234375 44.484375 21.808594 -0.03125 41.472656 24.792969 -0.03125 46.152344 21.808594 -8.484375 40.308594 24.792969 -11.1640625 44.484375 21.808594 -14.824219 35.234375 24.792969 -18.992188 38.03125 21.808594 -17.144531 28.875 24.792969 -22.234375 28.90625 21.808594 17.503906 28.875 24.792969 15.183594 35.234375 24.792969 14.1953125 28.875 29.140625 12.316406 35.234375 28.558594 5.53125 28.875 31.824219 4.8164063 35.234375 30.882813 -5.1757813 28.875 31.824219 -4.4570313 35.234375 30.882813 -13.8359375 28.875 29.140625 -11.9609375 35.234375 28.558594 -17.144531 28.875 24.792969 -14.824219 35.234375 24.792969 15.917969 70.86719 8.3671875 15.917969 70.86719 -31.984375 11.308594 79.87109 8.3671875 11.308594 79.87109 -31.984375 -0.03125 83.11328 8.3671875 -0.03125 83.11328 -31.984375 -10.949219 79.87109 8.3671875 -10.949219 79.87109 -31.984375 -15.558594 70.86719 8.3671875 -15.558594 70.86719 -31.984375 15.183594 35.234375 24.792969 8.839844 40.308594 24.792969 12.316406 35.234375 28.558594 7.1875 40.308594 26.964844 4.8164063 35.234375 30.882813 2.8554688 40.308594 28.308594 -4.4570313 35.234375 30.882813 -2.4960938 40.308594 28.308594 -32 44.007813 19.378906 -32 28.90625 19.378906 -15.496094 44.007813 19.378906 -15.5234375 28.90625 19.375 15.941406 44.007813 19.378906 15.910156 28.875 19.378906 32 44.007813 19.378906 32 29.019531 19.378906 -40 44 -28 -40 28.90625 -28 -52 44 -20 -52 28.90625 -20 -52 44 -4 -52 28.90625 -4 40 29.019531 -28 40 44 -28 52 29.019531 -20 52 44 -20 52 29.019531 -4 52 44 -4 -2.4960938 40.308594 28.308594 2.8554688 40.308594 28.308594 -0.03125 41.472656 24.792969 7.1875 40.308594 26.964844 8.839844 40.308594 24.792969 -10.949219 79.87109 8.3671875 -0.03125 70.86719 8.3671875 -0.03125 83.11328 8.3671875 11.308594 79.87109 8.3671875 17.914063 3.25 19.148438 -0.03125 3.25 19.148438 13.527344 3.25 27.007813 5.6601563 3.25 32.871094 -5.3007813 3.25 32.871094 -0.03125 3.25 19.148438 -13.167969 3.25 27.007813 -17.558594 3.25 19.148438 -13.4453125 28.503906 23.207031 -17.144531 28.503906 19.785156 -17.144531 3.3476563 19.785156 -13.4453125 3.3476563 23.207031 32 70.80469 -36 -32 70.80469 -36 -32 70.80469 12 32 70.80469 12 32 64 -43.023438 -32 64 -43.023438 -32 70.80469 -36 32 70.80469 -36 -40 64 -36 -40 64 12 -32 70.80469 12 -32 70.80469 -36 13.800781 3.3476563 23.207031 13.800781 28.503906 23.207031 13.800781 28.503906 19.449219 13.800781 3.3476563 19.449219 40 64 12 40 64 -36 32 70.80469 -36 32 70.80469 12 17.503906 3.3476563 19.785156 17.503906 28.503906 19.785156 13.800781 28.503906 23.207031 13.800781 3.3476563 23.207031 40 29.019531 4 40 29.019531 -28 40 44.007813 -36 40 44.007813 12 -40 28.90625 12 -32 28.90625 19.378906 -32 44.007813 19.378906 -40 44.007813 12 -0.03125 46.152344 21.808594 11.5234375 44.484375 21.808594 11.5234375 44.484375 19.785156 -0.03125 46.152344 19.785156 32 29.019531 19.378906 40 29.019531 12 40 44.007813 12 32 44.007813 19.378906 -13.90625 3.25 3.0507813 -13.90625 28.90625 3.0507813 -13.90625 28.90625 19.375 -13.90625 3.25 19.375 14.261719 3.25 3.0507813 14.261719 3.25 19.375 14.261719 28.875 19.375 14.261719 28.875 3.0507813 -13.90625 3.25 19.375 14.261719 3.25 19.375 14.261719 3.25 3.0507813 -13.90625 3.25 3.0507813 -13.90625 3.25 3.0507813 14.261719 3.25 3.0507813 14.261719 28.875 3.0507813 -13.90625 28.90625 3.0507813 -40 28.90625 4 -40 44.007813 12 -40 44.007813 -36 -40 28.90625 -28 -11.1640625 44.484375 21.808594 -0.03125 46.152344 21.808594 -0.03125 46.152344 19.785156 -11.1640625 44.484375 19.785156 11.5234375 44.484375 21.808594 19.351563 38.03125 21.808594 19.351563 38.03125 19.785156 11.5234375 44.484375 19.785156 -18.992188 38.03125 21.808594 -11.1640625 44.484375 21.808594 -11.1640625 44.484375 19.785156 -18.992188 38.03125 19.785156 -40 49.9375 0 -40 49.9375 -24 -52 44 -20 -52 44 -4 -40 28.90625 4 -40 44 4 -52 44 -4 -52 28.90625 -4 19.351563 38.03125 21.808594 22.589844 28.90625 21.808594 22.589844 28.90625 19.785156 19.351563 38.03125 19.785156 -22.234375 28.90625 21.808594 -18.992188 38.03125 21.808594 -18.992188 38.03125 19.785156 -22.234375 28.90625 19.785156 40 49.9375 0 52 44 -4 52 44 -20 40 49.9375 -24 40 29.019531 4 52 29.019531 -4 52 44 -4 40 44 4 -11.9609375 35.234375 28.558594 -4.4570313 35.234375 30.882813 -2.4960938 40.308594 28.308594 -6.828125 40.308594 26.964844 -14.824219 35.234375 24.792969 -11.9609375 35.234375 28.558594 -6.828125 40.308594 26.964844 -8.484375 40.308594 24.792969 -13.4453125 28.503906 23.207031 -13.4453125 3.3476563 23.207031 -13.4453125 3.3476563 19.449219 -13.4453125 28.503906 19.449219 -32 70.80469 12 -15.496094 64 19.378906 15.941406 64 19.378906 32 70.80469 12 -6.828125 40.308594 26.964844 -2.4960938 40.308594 28.308594 -0.03125 41.472656 24.792969 -8.484375 40.308594 24.792969 -6.828125 40.308594 26.964844 -0.03125 41.472656 24.792969 -40 44 4 -40 49.9375 0 -52 44 -4 15.917969 70.86719 8.3671875 11.308594 79.87109 8.3671875 -0.03125 70.86719 8.3671875 -0.03125 3.25 19.148438 -5.3007813 3.25 32.871094 5.6601563 3.25 32.871094 -10.949219 79.87109 8.3671875 -15.558594 70.86719 8.3671875 -0.03125 70.86719 8.3671875 -32 70.80469 12 -32 64 19.378906 -15.496094 64 19.378906 40 29.019531 12 40 29.019531 4 40 44.007813 12 32 70.80469 12 15.941406 64 19.378906 32 64 19.378906 -32 64 -43.023438 -40 64 -36 -32 70.80469 -36 -40 64 12 -32 64 19.378906 -32 70.80469 12 40 64 -36 32 64 -43.023438 32 70.80469 -36 32 64 19.378906 40 64 12 32 70.80469 12 40 29.019531 -28 40 29.019531 -36 40 44.007813 -36 -40 28.90625 12 -40 44.007813 12 -40 28.90625 4 -40 28.90625 -28 -40 44.007813 -36 -40 28.90625 -36 -40 49.9375 -24 -40 44 -28 -52 44 -20 40 44 4 52 44 -4 40 49.9375 0 40 49.9375 -24 52 44 -20 40 44 -28 </float_array>
          <technique_common>
            <accessor source="#positions-array" count="386" stride="3">
              <param name="X" type="float" />
              <param name="Y" type="float" />
              <param name="Z" type="float" />
            </accessor>
          </technique_common>
        </source>
        <source id="texcoords">
          <float_array id="texcoords-array" count="772">0.625 0.875 0.625 0.875 0.625 0.125 0.625 0.125 0.625 0.125 0.625 0.125 1.4921875 -0.2265625 1.5 -0.3515625 2.1484375 -0.3515625 2.125 -0.2265625 0.3359375 -0.8515625 0.3359375 -0.3671875 0.3359375 -0.3671875 0.3359375 -0.8515625 0.625 0.125 0.625 0.875 0.625 0.875 0.625 0.125 0.625 0.875 0.625 0.125 0.625 0.125 0.625 0.875 1.25 0.796875 1.3984375 0.59375 1.546875 0.796875 1.84375 -0.3515625 2.1875 -0.2265625 1.4921875 -0.2265625 1.28125 -0.5 1.1484375 -0.1796875 1 -0.5 1.25 0.796875 1.3984375 0.59375 1.546875 0.796875 1.515625 -0.2265625 1.8671875 -0.3515625 2.2109375 -0.2265625 1.28125 -0.5 1 -0.5 1.1484375 -0.1796875 0.625 0.875 0.625 0.125 0.625 0.875 0.625 0.125 0.625 0.875 0.625 0.875 0.625 0.125 0.625 0.875 0.625 0.875 0.625 0.875 0.625 0.125 0.625 0.875 0 0.625 1 0.625 1 0.75 0 0.75 -2 0.28125 -3 0.28125 -3 0 -2 0 0 0.28125 0 0 1 0 1 0.28125 -3 0 -2 0 -2 0.28125 -3 0.28125 -7 0.5234375 -7 0.28125 -6 0.28125 -6 0.5234375 -6 0.28125 -6 0.5234375 -8 0.5234375 -8 0.28125 -7 0.28125 -5 0.28125 -5 0.5234375 -7 0.5234375 -11 0.28125 -6 0.28125 -6 0.5234375 -11 0.5234375 -7 0.28125 -6 0.28125 -6 0.5234375 -7 0.5234375 -11 0.28125 -6 0.28125 -6 0.5234375 -11 0.5234375 -7 0.28125 -6 0.28125 -6 0.5234375 -7 0.5234375 -4 0 -2 0 -2 0.28125 -4 0.28125 -3 0 -2 0 -2 0.28125 -3 0.28125 1 0 1 0.28125 -1 0.28125 -1 0 0 0.28125 0 0 1 0 1 0.28125 -3 0 -2 0 -2 0.28125 -3 0.28125 -2 0.28125 -3 0.28125 -3 0 -2 0 0 0.28125 0 0 1 0 1 0.28125 0 0.28125 0 0 1 0 1 0.28125 0 0.28125 0 0 1 0 1 0.28125 0.40625 0.53125 0.40625 0.96875 0.40625 0.53125 0.40625 0.96875 0.40625 0.53125 0.40625 0.96875 0.40625 0.53125 0.40625 0.96875 0.40625 0.53125 0.40625 0.96875 0.40625 0.53125 0.40625 0.96875 0.40625 0.53125 0.40625 0.96875 0.033203125 0 0.033203125 0.37304688 0.033203125 0 0.033203125 0.37304688 0.033203125 0 0.033203125 0.37304688 0.033203125 0 0.033203125 0.37304688 0.033203125 0 0.033203125 0.37304688 0.033203125 0 0.033203125 0.37304688 0.328125 0.53125 0.359375 0.53125 0.328125 0.75 0.359375 0.75 0.328125 1 0.359375 1 0.328125 0.75 0.359375 0.75 0.328125 0.53125 0.359375 0.53125 0.109375 0.02734375 0.109375 0.7949219 0.109375 0.02734375 0.109375 0.7949219 0.109375 0.02734375 0.109375 0.7949219 0.109375 0.02734375 0.109375 0.7949219 0.015625 0.9863281 0.015625 0.013671875 0.015625 0.9863281 0.015625 0.013671875 0.015625 0.9863281 0.015625 0.013671875 0.015625 0.9863281 0.015625 0.013671875 0.984375 0.96875 0.984375 0.015625 0.984375 0.96875 0.984375 0.015625 0.984375 0.96875 0.984375 0.015625 0.984375 0.03125 0.984375 0.96875 0.984375 0.03125 0.984375 0.96875 0.984375 0.03125 0.984375 0.96875 0.109375 0.7949219 0.109375 0.7949219 0.109375 0.97265625 0.109375 0.7949219 0.109375 0.7949219 0.265625 0.9921875 0.265625 0.5078125 0.265625 0.9921875 0.265625 0.9921875 0.50683594 0.53125 0.546875 1 0.52441406 0.53125 0.5625 0.53125 0.5625 0.53125 0.546875 1 0.52441406 0.53125 0.50683594 0.53125 0.65625 1 0.65625 1 0.65625 0.53125 0.65625 0.53125 0.890625 0.22070313 0.171875 0.22070313 0.171875 0.18554688 0.890625 0.18554688 0.890625 0 0.171875 0 0.171875 0.1796875 0.890625 0.1796875 0.453125 0 0.5625 0 0.5625 0.1796875 0.453125 0.1796875 0.65625 0.9375 0.65625 0.9375 0.65625 0.9375 0.65625 0.9375 0.5625 0 0.453125 0 0.453125 0.1796875 0.5625 0.1796875 0.65625 0.53125 0.65625 1 0.65625 1 0.65625 0.53125 0.078125 0.013671875 0.078125 0.013671875 0.078125 0.9863281 0.078125 0.9863281 0.015625 0.013671875 0.015625 0.013671875 0.015625 0.9863281 0.015625 0.9863281 0.40625 0.75 0.40625 0.75 0.40625 0.625 0.40625 0.625 0.015625 0.013671875 0.015625 0.013671875 0.015625 0.9863281 0.015625 0.9863281 0.59375 0.40625 0.59375 0.40625 0.59375 0.40625 0.59375 0.40625 0.59375 0.40625 0.59375 0.40625 0.59375 0.40625 0.59375 0.40625 0.515625 0.28125 0.734375 0.28125 0.734375 0.46875 0.515625 0.46875 0.59375 0.40625 0.59375 0.40625 0.59375 0.40625 0.59375 0.40625 0.078125 0.013671875 0.078125 0.9863281 0.078125 0.9863281 0.078125 0.013671875 0.40625 0.75 0.40625 0.75 0.40625 0.625 0.40625 0.625 0.40625 0.75 0.40625 0.75 0.40625 0.625 0.40625 0.625 0.40625 0.75 0.40625 0.75 0.40625 0.625 0.40625 0.625 0.140625 0.28125 0.140625 0.28125 0.140625 0.96875 0.140625 0.96875 0.9375 0.015625 0.9375 0.96875 0.9375 0.96875 0.9375 0.015625 0.40625 0.75 0.40625 0.75 0.40625 0.625 0.40625 0.625 0.40625 0.75 0.40625 0.75 0.40625 0.625 0.40625 0.625 0.140625 0.28125 0.140625 0.96875 0.140625 0.96875 0.140625 0.28125 0.9375 0.03125 0.9375 0.03125 0.9375 0.96875 0.9375 0.96875 0.25 0.46875 0.25 0.28125 0.359375 0.28125 0.359375 0.46875 0.109375 0.02734375 0.109375 0.02734375 0.109375 0.7949219 0.109375 0.7949219 0.65625 0.9375 0.65625 0.9375 0.65625 0.9375 0.65625 0.9375 0.171875 0.1796875 0.359375 0 0.71875 0 0.890625 0.1796875 0.359375 0.46875 0.359375 0.28125 0.484375 0.375 0.109375 0.7949219 0.109375 0.7949219 0.109375 0.97265625 0.171875 0.96875 0.171875 0.28125 0.171875 0.96875 0.296875 0.9921875 0.296875 0.9921875 0.296875 0.5078125 0.546875 1 0.609375 0.53125 0.5625 0.53125 0.296875 0.9921875 0.296875 0.9921875 0.296875 0.5078125 0.171875 0.1796875 0.171875 0 0.359375 0 0.078125 0.013671875 0.078125 0.013671875 0.078125 0.9863281 0.890625 0.1796875 0.71875 0 0.890625 0 0.453125 0 0.5625 0 0.515625 0.1796875 0.453125 0 0.5625 0 0.515625 0.1796875 0.5625 0 0.453125 0 0.515625 0.1796875 0.453125 0 0.5625 0 0.515625 0.1796875 0.078125 0.013671875 0.078125 0.013671875 0.078125 0.9863281 0.078125 0.013671875 0.078125 0.9863281 0.078125 0.013671875 0.078125 0.013671875 0.078125 0.9863281 0.078125 0.013671875 0.140625 0.28125 0.140625 0.96875 0.140625 0.96875 0.171875 0.96875 0.171875 0.96875 0.171875 0.28125 0.140625 0.28125 0.140625 0.96875 0.140625 0.96875 </float_array>
          <technique_common>
            <accessor source="#texcoords-array" count="386" stride="2">
              <param name="S" type="float" />
              <param name="T" type="float" />
            </accessor>
          </technique_common>
        </source>
        <source id="colors">
          <float_array id="colors-array" count="1158">1 1 1 1 1 1 1 1 1 1 1 1 1 1 1 1 1 1 1 1 1 1 1 1 1 1 1 1 1 1 1 1 1 1 1 1 1 1 1 1 1 1 1 1 1 1 1 1 1 1 1 1 1 1 1 1 1 1 1 1 1 1 1 1 1 1 1 1 1 1 1 1 1 1 1 1 1 1 1 1 1 1 1 1 1 1 1 1 1 1 1 1 1 1 1 1 1 1 1 1 1 1 1 1 1 1 1 1 1 1 1 1 1 1 1 1 1 1 1 1 1 1 1 1 1 1 1 1 1 1 1 1 1 1 1 1 1 1 1 1 1 1 1 1 1 1 1 1 1 1 1 1 1 1 1 1 1 1 1 1 1 1 1 1 1 1 1 1 1 1 1 1 1 1 1 1 1 1 1 1 1 1 1 1 1 1 1 1 1 1 1 1 1 1 1 1 1 1 1 1 1 1 1 1 1 1 1 1 1 1 1 1 1 1 1 1 1 1 1 1 1 1 1 1 1 1 1 1 1 1 1 1 1 1 1 1 1 1 1 1 1 1 1 1 1 1 1 1 1 1 1 1 1 1 1 1 1 1 1 1 1 1 1 1 1 1 1 1 1 1 1 1 1 1 1 1 1 1 1 1 1 1 1 1 1 1 1 1 1 1 1 1 1 1 1 1 1 1 1 1 1 1 1 1 1 1 1 1 1 1 1 1 1 1 1 1 1 1 1 1 1 1 1 1 1 1 1 1 1 1 1 1 1 1 1 1 1 1 1 1 1 1 1 1 1 1 1 1 1 1 1 1 1 1 1 1 1 1 1 1 1 1 1 1 1 1 1 1 1 1 1 1 1 1 1 1 1 1 1 1 1 1 1 1 1 1 1 1 1 1 1 1 1 1 1 1 1 1 1 1 1 1 1 1 1 1 1 1 1 1 1 1 1 1 1 1 1 1 1 1 1 1 1 1 1 1 1 1 1 1 1 1 1 1 1 1 1 1 1 1 1 1 1 1 1 1 1 1 1 1 1 1 1 1 1 1 1 1 1 1 1 1 1 1 1 1 1 1 1 1 1 1 1 1 1 1 1 1 1 1 1 1 1 1 1 1 1 1 1 1 1 1 1 1 1 1 1 1 1 1 1 1 1 1 1 1 1 1 1 1 1 1 1 1 1 1 1 1 1 1 1 1 1 1 1 1 1 1 1 1 1 1 1 1 1 1 1 1 1 1 1 1 1 1 1 1 1 1 1 1 1 1 1 1 1 1 1 1 1 1 1 1 1 1 1 1 1 1 1 1 1 1 1 1 1 1 1 1 1 1 1 1 1 1 1 1 1 1 1 1 1 1 1 1 1 1 1 1 1 1 1 1 1 1 1 1 1 1 1 1 1 1 1 1 1 1 1 1 1 1 1 1 1 1 1 1 1 1 1 1 1 1 1 1 1 1 1 1 1 1 1 1 1 1 1 1 1 1 1 1 1 1 1 1 1 1 1 1 1 1 1 1 1 1 1 1 1 1 1 1 1 1 1 1 1 1 1 1 1 1 1 1 1 1 1 1 1 1 1 1 1 1 1 1 1 1 1 1 1 1 1 1 1 1 1 1 1 1 1 1 1 1 1 1 1 1 1 1 1 1 1 1 1 1 1 1 1 1 1 1 1 1 1 1 1 1 1 1 1 1 1 1 1 1 1 1 1 1 1 1 1 1 1 1 1 1 1 1 1 1 1 1 1 1 1 1 1 1 1 1 1 1 1 1 1 1 1 1 1 1 1 1 1 1 1 1 1 1 1 1 1 1 1 1 1 1 1 1 1 1 1 1 1 1 1 1 1 1 1 1 1 1 1 1 1 1 1 1 1 1 1 1 1 1 1 1 1 1 1 1 1 1 1 1 1 1 1 1 1 1 1 1 1 1 1 1 1 1 1 1 1 1 1 1 1 1 1 1 1 1 1 1 1 1 1 1 1 1 1 1 1 1 1 1 1 1 1 1 1 1 1 1 1 1 1 1 1 1 1 1 1 1 1 1 1 1 1 1 1 1 1 1 1 1 1 1 1 1 1 1 1 1 1 1 1 1 1 1 1 1 1 1 1 1 1 1 1 1 1 1 1 1 1 1 1 1 1 1 1 1 1 1 1 1 1 1 1 1 1 1 1 1 1 1 1 1 1 1 1 1 1 1 1 1 1 1 1 1 1 1 1 1 1 1 1 1 1 1 1 1 1 1 1 1 1 1 1 1 1 1 1 1 1 1 1 1 1 1 1 1 1 1 1 1 1 1 1 1 1 1 1 1 1 1 1 1 1 1 1 1 1 1 1 1 1 1 1 1 1 1 1 1 1 1 1 1 1 1 1 1 1 1 1 1 1 1 1 1 1 1 1 1 1 1 1 1 1 1 1 1 1 1 1 1 1 1 1 1 1 1 1 1 1 1 1 1 1 1 1 1 1 1 1 1 1 1 1 1 1 1 1 1 1 1 1 1 1 1 1 1 1 1 1 1 1 1 1 1 1 1 1 1 1 1 1 1 1 1 1 1 1 1 1 1 1 1 1 1 1 1 1 1 1 1 1 1 1 1 1 1 1 1 1 1 1 1 1 1 1 1 1 1 1 1 1 1 1 1 </float_array>
          <technique_common>
            <accessor source="#colors-array" count="386" stride="3">
              <param name="R" type="float" />
              <param name="G" type="float" />
              <param name="B" type="float" />
            </accessor>
          </technique_common>
        </source>
        <source id="normals">
          <float_array id="normals-array" count="1158">0 1 0 0 1 0 0 1 0 0 1 0 0 1 0 0 1 0 0 1 0 0 1 0 0 1 0 0 1 0 0 1 0 0 1 0 0 1 0 0 1 0 0 1 0 0 1 0 0 1 0 0 1 0 0 1 0 0 1 0 0 1 0 0 1 0 0 1 0 0 1 0 0 1 0 0 1 0 0 1 0 0 1 0 0 1 0 0 1 0 0 1 0 0 1 0 0 1 0 0 1 0 0 1 0 0 1 0 0 1 0 0 1 0 0 1 0 0 1 0 0 1 0 0 1 0 0 1 0 0 1 0 0 1 0 0 1 0 0 1 0 0 1 0 0 1 0 0 1 0 0 1 0 0 1 0 0 0 1 0 0 1 0 0 1 0 0 1 0.5547002 0 0.8320503 0.5547002 0 0.8320503 0.5547002 0 0.8320503 0.5547002 0 0.8320503 1 0 0 1 0 0 1 0 0 1 0 0 1 0 0 1 0 0 1 0 0 1 0 0 0 0 1 0 0 1 0 0 1 0 0 1 0 0 1 0 0 1 0 0 1 0 0 1 0 0 1 0 0 1 0 0 1 0 0 1 -1 0 0 -1 0 0 -1 0 0 -1 0 0 -0.67819893 0 0.73487836 -0.67819893 0 0.73487836 -0.67819893 0 0.73487836 -0.67819893 0 0.73487836 1 0 0 1 0 0 1 0 0 1 0 0 0.67819893 0 0.73487836 0.67819893 0 0.73487836 0.67819893 0 0.73487836 0.67819893 0 0.73487836 0 0 1 0 0 1 0 0 1 0 0 1 -0.67819893 0 0.73487836 -0.67819893 0 0.73487836 -0.67819893 0 0.73487836 -0.67819893 0 0.73487836 0 0 1 0 0 1 0 0 1 0 0 1 1 0 0 1 0 0 1 0 0 1 0 0 0.67819893 0 0.73487836 0.67819893 0 0.73487836 0.67819893 0 0.73487836 0.67819893 0 0.73487836 -0.5547002 0 0.8320503 -0.5547002 0 0.8320503 -0.5547002 0 0.8320503 -0.5547002 0 0.8320503 -1 0 0 -1 0 0 -1 0 0 -1 0 0 -1 0 0 -1 0 0 -1 0 0 -1 0 0 -1 0 0 -1 0 0 -1 0 0 -1 0 0 0.4939127 0.17765239 0.8511697 0.4939127 0.17765239 0.8511697 0.4163127 0.2951325 0.8599887 0.4163127 0.2951325 0.8599887 0.20512703 0.47862974 0.8537192 0.20512703 0.47862974 0.8537192 -0.0019529723 0.5429263 0.83977807 -0.091839805 0.7796613 0.6194301 -0.2069973 0.47843716 0.8533757 -0.21098177 0.7364827 0.642713 -0.4163127 0.2951325 0.8599887 -0.4163127 0.2951325 0.8599887 -0.4939127 0.17765239 0.8511697 -0.4939127 0.17765239 0.8511697 0.7636864 0.2793022 0.58204234 0.6856175 0.50786483 0.5215381 0.5372467 0.25201756 0.80489326 0.50124043 0.44663057 0.7411337 0.14829022 0.16194852 0.9755935 0.1406022 0.33002463 0.9334424 -0.14829022 0.16194852 0.9755935 -0.1406022 0.33002463 0.9334424 -0.5372467 0.25201756 0.80489326 -0.50124043 0.44663057 0.7411337 -0.7636864 0.2793022 0.58204234 -0.6856175 0.50786483 0.5215381 0.89048743 0.45500782 0 0.89048743 0.45500782 0 0.6365282 0.77125347 0 0.6365282 0.77125347 0 0 1 0 0 1 0 -0.6365282 0.77125347 0 -0.6365282 0.77125347 0 -0.89048743 0.45500782 0 -0.89048743 0.45500782 0 0.6856175 0.50786483 0.5215381 0.36522463 0.88864815 0.27733636 0.50124043 0.44663057 0.7411337 0.26352817 0.86281073 0.43140537 0.1406022 0.33002463 0.9334424 0.089764856 0.78056395 0.6185969 -0.1406022 0.33002463 0.9334424 -0.091839805 0.7796613 0.6194301 0 0 1 0 0 1 0 0 1 0 0 1 0 0 1 0 0 1 0 0 1 0 0 1 -0.5372467 0.25201756 -0.80489326 -0.5547002 0 -0.8320503 -0.7656294 0.42773682 -0.4804715 -0.88116026 0 -0.47281772 -0.7656294 0.42773682 0.4804715 -0.88116026 0 0.47281772 0.5547002 0 -0.8320503 0.5372467 0.25201756 -0.80489326 0.88116026 0 -0.47281772 0.7656294 0.42773682 -0.4804715 0.88116026 0 0.47281772 0.7656294 0.42773682 0.4804715 -0.091839805 0.7796613 0.6194301 0.089764856 0.78056395 0.6185969 -0.0019519824 0.9779431 0.20886211 0.26352817 0.86281073 0.43140537 0.36522463 0.88864815 0.27733636 0 0 1 0 0 1 0 0 1 0 0 1 0 1 0 0 1 0 0 1 0 0 1 0 0 1 0 0 1 0 0 1 0 0 1 0 -0.67819893 0 0.73487836 -0.67819893 0 0.73487836 -0.67819893 0 0.73487836 -0.67819893 0 0.73487836 0.33012283 0.87121177 -0.36333045 -0.33012283 0.87121177 -0.36333045 -0.26352817 0.86281073 0.43140537 0.26352817 0.86281073 0.43140537 0.27141088 0.6912191 -0.6697405 -0.27141088 0.6912191 -0.6697405 -0.33012283 0.87121177 -0.36333045 0.33012283 0.87121177 -0.36333045 -0.61572665 0.7232345 -0.31275004 -0.61740893 0.72682315 0.30088916 -0.26352817 0.86281073 0.43140537 -0.33012283 0.87121177 -0.36333045 -1 0 0 -1 0 0 -1 0 0 -1 0 0 0.61740893 0.72682315 0.30088916 0.61572665 0.7232345 -0.31275004 0.33012283 0.87121177 -0.36333045 0.26352817 0.86281073 0.43140537 0.67819893 0 0.73487836 0.67819893 0 0.73487836 0.67819893 0 0.73487836 0.67819893 0 0.73487836 1 0 0 1 0 0 1 0 0 1 0 0 -0.67819893 0 0.73487836 -0.67819893 0 0.73487836 -0.67819893 0 0.73487836 -0.67819893 0 0.73487836 0.14251453 0.9897927 0 0.14251453 0.9897927 0 0.14251453 0.9897927 0 0.14251453 0.9897927 0 0.67819893 0 0.73487836 0.67819893 0 0.73487836 0.67819893 0 0.73487836 0.67819893 0 0.73487836 1 0 0 1 0 0 1 0 0 1 0 0 -1 0 0 -1 0 0 -1 0 0 -1 0 0 0 1 0 0 1 0 0 1 0 0 1 0 0 0 1 0 0 1 0 0 1 0 0 1 -1 0 0 -1 0 0 -1 0 0 -1 0 0 -0.21098177 0.7364827 0.642713 -0.091839805 0.7796613 0.6194301 -0.14853159 0.98890764 0 -0.14853159 0.98890764 0 0.6365282 0.77125347 0 0.6365282 0.77125347 0 0.6365282 0.77125347 0 0.6365282 0.77125347 0 -0.6365282 0.77125347 0 -0.6365282 0.77125347 0 -0.6365282 0.77125347 0 -0.6365282 0.77125347 0 -0.51006436 0.7621652 0.398671 -0.51006436 0.7621652 -0.398671 -0.7656294 0.42773682 -0.4804715 -0.7656294 0.42773682 0.4804715 -0.5547002 0 0.8320503 -0.5372467 0.25201756 0.80489326 -0.7656294 0.42773682 0.4804715 -0.88116026 0 0.47281772 0.9424476 0.33435383 0 0.9424476 0.33435383 0 0.9424476 0.33435383 0 0.9424476 0.33435383 0 -0.9424476 0.33435383 0 -0.9424476 0.33435383 0 -0.9424476 0.33435383 0 -0.9424476 0.33435383 0 0.51006436 0.7621652 0.398671 0.7656294 0.42773682 0.4804715 0.7656294 0.42773682 -0.4804715 0.51006436 0.7621652 -0.398671 0.5547002 0 0.8320503 0.88116026 0 0.47281772 0.7656294 0.42773682 0.4804715 0.5372467 0.25201756 0.80489326 -0.50124043 0.44663057 0.7411337 -0.1406022 0.33002463 0.9334424 -0.091839805 0.7796613 0.6194301 -0.26352817 0.86281073 0.43140537 -0.6856175 0.50786483 0.5215381 -0.50124043 0.44663057 0.7411337 -0.26352817 0.86281073 0.43140537 -0.3673522 0.8871165 0.27942213 1 0 0 1 0 0 1 0 0 1 0 0 -0.26352817 0.86281073 0.43140537 0 0.73487836 0.67819893 0 0.73487836 0.67819893 0.26352817 0.86281073 0.43140537 -0.26352817 0.86281073 0.43140537 -0.091839805 0.7796613 0.6194301 -0.0019519824 0.9779431 0.20886211 -0.3673522 0.8871165 0.27942213 -0.26352817 0.86281073 0.43140537 -0.0019519824 0.9779431 0.20886211 -0.5372467 0.25201756 0.80489326 -0.51006436 0.7621652 0.398671 -0.7656294 0.42773682 0.4804715 0 0 1 0 0 1 0 0 1 0 1 0 0 1 0 0 1 0 0 0 1 0 0 1 0 0 1 -0.26352817 0.86281073 0.43140537 -0.27521378 0.70657724 0.65192485 0 0.73487836 0.67819893 1 0 0 1 0 0 1 0 0 0.26352817 0.86281073 0.43140537 0 0.73487836 0.67819893 0.27521378 0.70657724 0.65192485 -0.27141088 0.6912191 -0.6697405 -0.61572665 0.7232345 -0.31275004 -0.33012283 0.87121177 -0.36333045 -0.61740893 0.72682315 0.30088916 -0.27521378 0.70657724 0.65192485 -0.26352817 0.86281073 0.43140537 0.61572665 0.7232345 -0.31275004 0.27141088 0.6912191 -0.6697405 0.33012283 0.87121177 -0.36333045 0.27521378 0.70657724 0.65192485 0.61740893 0.72682315 0.30088916 0.26352817 0.86281073 0.43140537 1 0 0 1 0 0 1 0 0 -1 0 0 -1 0 0 -1 0 0 -1 0 0 -1 0 0 -1 0 0 -0.51006436 0.7621652 -0.398671 -0.5372467 0.25201756 -0.80489326 -0.7656294 0.42773682 -0.4804715 0.5372467 0.25201756 0.80489326 0.7656294 0.42773682 0.4804715 0.51006436 0.7621652 0.398671 0.51006436 0.7621652 -0.398671 0.7656294 0.42773682 -0.4804715 0.5372467 0.25201756 -0.80489326 </float_array>
          <technique_common>
            <accessor source="#normals-array" count="386" stride="3">
              <param name="X" type="float" />
              <param name="Y" type="float" />
              <param name="Z" type="float" />
            </accessor>
          </technique_common>
        </source>
        <vertices id="vertices">
          <input semantic="POSITION" source="#positions" />
          <input semantic="TEXCOORD" source="#texcoords" />
          <input semantic="COLOR" source="#colors" />
          <input semantic="NORMAL" source="#normals" />
        </vertices>
        <polylist material="material0" count="16">
          <input semantic="VERTEX" source="#vertices" offset="0" />
          <vcount>4 4 4 4 4 4 3 3 3 3 3 3 3 3 3 3 </vcount>
          <p>0 1 3 2 2 3 5 4 6 7 8 9 10 11 12 13 14 15 16 17 18 19 20 21 22 23 24 25 26 27 28 29 30 31 32 33 34 35 36 37 38 39 40 41 42 43 44 45 46 47 48 49 50 51 </p>
        </polylist>
        <polylist material="material2" count="20">
          <input semantic="VERTEX" source="#vertices" offset="0" />
          <vcount>4 4 4 4 4 4 4 4 4 4 4 4 4 4 4 4 4 4 4 4 </vcount>
          <p>52 53 54 55 56 57 58 59 60 61 62 63 64 65 66 67 68 69 70 71 72 73 74 75 76 77 78 79 80 81 82 83 84 85 86 87 88 89 90 91 92 93 94 95 96 97 98 99 100 101 102 103 104 105 106 107 108 109 110 111 112 113 114 115 116 117 118 119 120 121 122 123 124 125 126 127 128 129 130 131 </p>
        </polylist>
        <polylist material="material1" count="82">
          <input semantic="VERTEX" source="#vertices" offset="0" />
          <vcount>4 4 4 4 4 4 4 4 4 4 4 4 4 4 4 4 4 4 4 4 4 4 4 4 4 3 3 3 3 3 3 3 3 3 4 4 4 4 4 4 4 4 4 4 4 4 4 4 4 4 4 4 4 4 4 4 4 4 4 4 4 4 4 3 3 3 3 3 3 3 3 3 3 3 3 3 3 3 3 3 3 3 </vcount>
          <p>132 133 135 134 134 135 137 136 136 137 139 138 138 139 141 140 140 141 143 142 142 143 145 144 146 147 149 148 148 149 151 150 150 151 153 152 152 153 155 154 154 155 157 156 158 159 161 160 160 161 163 162 162 163 165 164 164 165 167 166 168 169 171 170 170 171 173 172 172 173 175 174 176 177 179 178 178 179 181 180 180 181 183 182 184 185 187 186 186 187 189 188 190 191 193 192 192 193 195 194 196 197 198 197 199 198 198 199 200 201 202 203 202 204 203 205 206 207 206 208 207 209 210 211 210 212 211 213 214 215 216 217 218 219 220 221 222 223 224 225 226 227 228 229 230 231 232 233 234 235 236 237 238 239 240 241 242 243 244 245 246 247 248 249 250 251 252 253 254 255 256 257 258 259 260 261 262 263 264 265 266 267 268 269 270 271 272 273 274 275 276 277 278 279 280 281 282 283 284 285 286 287 288 289 290 291 292 293 294 295 296 297 298 299 300 301 302 303 304 305 306 307 308 309 310 311 312 313 314 315 316 317 318 319 320 321 322 323 324 325 326 327 328 329 330 331 332 333 334 335 336 337 338 339 340 341 342 343 344 345 346 347 348 349 350 351 352 353 354 355 356 357 358 359 360 361 362 363 364 365 366 367 368 369 370 371 372 373 374 375 376 377 378 379 380 381 382 383 384 385 </p>
        </polylist>
      </mesh>
    </geometry>
  </library_geometries>
  <library_visual_scenes>
    <visual_scene id="scene0" name="pc_01">
      <node id="node" name="pc_01" type="NODE">
        <instance_geometry url="#geometry">
          <bind_material>
            <technique_common>
              <instance_material symbol="material0" target="#material0">
                <bind_vertex_input semantic="tc" input_semantic="TEXCOORD" />
              </instance_material>
              <instance_material symbol="material1" target="#material1">
                <bind_vertex_input semantic="tc" input_semantic="TEXCOORD" />
              </instance_material>
              <instance_material symbol="material2" target="#material2">
                <bind_vertex_input semantic="tc" input_semantic="TEXCOORD" />
              </instance_material>
            </technique_common>
          </bind_material>
        </instance_geometry>
      </node>
    </visual_scene>
  </library_visual_scenes>
  <scene>
    <instance_visual_scene url="#scene0" />
  </scene>
</COLLADA>